Alegreya Sans SC-ExtraBold.ufo
<glyph name="exclam" format="1">
  <advance width="268"/>
  <unicode hex="0021"/>
  <outline>
    <contour>
      <point x="80" y="660" type="line"/>
      <point x="66" y="642" type="line"/>
      <point x="78" y="249" type="line"/>
      <point x="93" y="233" type="line"/>
      <point x="183" y="246" type="line"/>
      <point x="225" y="649" type="line"/>
      <point x="207" y="668" type="line"/>
    </contour>
    <component base="period" xOffset="9"/>
  </outline>
</glyph>
<glyph name="period" format="1">
  <advance width="228"/>
  <unicode hex="002E"/>
  <outline>
    <contour>
      <point x="65" y="158"/>
      <point x="33" y="124"/>
      <point x="33" y="72" type="curve" smooth="yes"/>
      <point x="33" y="21"/>
      <point x="61" y="-8"/>
      <point x="111" y="-8" type="curve" smooth="yes"/>
      <point x="163" y="-8"/>
      <point x="195" y="26"/>
      <point x="195" y="79" type="curve" smooth="yes"/>
      <point x="195" y="128"/>
      <point x="167" y="158"/>
      <point x="118" y="158" type="curve" smooth="yes"/>
    </contour>
  </outline>
</glyph>
<glyph name="slash" format="1">
  <advance width="282"/>
  <unicode hex="002F"/>
  <outline>
    <contour>
      <point x="196" y="681" type="line"/>
      <point x="-11" y="-104" type="line"/>
      <point x="-2" y="-116" type="line"/>
      <point x="108" y="-116" type="line"/>
      <point x="315" y="668" type="line"/>
      <point x="303" y="681" type="line"/>
    </contour>
  </outline>
</glyph>
<glyph name="two" format="1">
  <advance width="479"/>
  <unicode hex="0032"/>
  <outline>
    <contour>
      <point x="177" y="516"/>
      <point x="105" y="491"/>
      <point x="35" y="449" type="curve"/>
      <point x="62" y="326" type="line"/>
      <point x="79" y="326" type="line"/>
      <point x="119" y="360"/>
      <point x="169" y="381"/>
      <point x="208" y="381" type="curve" smooth="yes"/>
      <point x="240" y="381"/>
      <point x="256" y="367"/>
      <point x="256" y="346" type="curve" smooth="yes"/>
      <point x="256" y="316"/>
      <point x="224" y="278"/>
      <point x="167" y="223" type="curve" smooth="yes"/>
      <point x="36" y="100" type="line"/>
      <point x="36" y="3" type="line"/>
      <point x="43" y="-3" type="line"/>
      <point x="80" y="0" type="line"/>
      <point x="308" y="0" type="line"/>
      <point x="439" y="-7" type="line"/>
      <point x="457" y="120" type="line"/>
      <point x="448" y="130" type="line"/>
      <point x="355" y="121" type="line"/>
      <point x="244" y="121" type="line" smooth="yes"/>
      <point x="242" y="125" type="line"/>
      <point x="304" y="192" type="line" smooth="yes"/>
      <point x="384" y="276"/>
      <point x="414" y="335"/>
      <point x="414" y="388" type="curve" smooth="yes"/>
      <point x="414" y="470"/>
      <point x="342" y="516"/>
      <point x="246" y="516" type="curve" smooth="yes"/>
    </contour>
  </outline>
</glyph>
<glyph name="five" format="1">
  <advance width="438"/>
  <unicode hex="0035"/>
  <outline>
    <contour>
      <point x="293" y="509" type="line"/>
      <point x="141" y="509" type="line"/>
      <point x="81" y="512" type="line"/>
      <point x="64" y="495" type="line"/>
      <point x="59" y="198" type="line"/>
      <point x="69" y="186" type="line"/>
      <point x="170" y="169" type="line" smooth="yes"/>
      <point x="228" y="158"/>
      <point x="252" y="138"/>
      <point x="252" y="100" type="curve" smooth="yes"/>
      <point x="252" y="54"/>
      <point x="213" y="25"/>
      <point x="147" y="25" type="curve" smooth="yes"/>
      <point x="106" y="25"/>
      <point x="67" y="32"/>
      <point x="24" y="46" type="curve"/>
      <point x="13" y="35" type="line"/>
      <point x="21" y="-83" type="line"/>
      <point x="57" y="-91"/>
      <point x="103" y="-96"/>
      <point x="139" y="-96" type="curve" smooth="yes"/>
      <point x="296" y="-96"/>
      <point x="402" y="-9"/>
      <point x="402" y="120" type="curve" smooth="yes"/>
      <point x="402" y="205"/>
      <point x="356" y="257"/>
      <point x="242" y="281" type="curve" smooth="yes"/>
      <point x="181" y="294" type="line"/>
      <point x="184" y="385" type="line"/>
      <point x="284" y="385" type="line"/>
      <point x="384" y="373" type="line"/>
      <point x="395" y="384" type="line"/>
      <point x="412" y="506" type="line"/>
      <point x="403" y="516" type="line"/>
    </contour>
  </outline>
</glyph>
<glyph name="seven" format="1">
  <advance width="440"/>
  <unicode hex="0037"/>
  <outline>
    <contour>
      <point x="12" y="380" type="line"/>
      <point x="20" y="367" type="line"/>
      <point x="120" y="378" type="line"/>
      <point x="261" y="378" type="line"/>
      <point x="64" y="-39" type="line"/>
      <point x="74" y="-64" type="line"/>
      <point x="201" y="-99" type="line"/>
      <point x="263" y="66" type="line"/>
      <point x="414" y="395" type="line"/>
      <point x="414" y="511" type="line"/>
      <point x="361" y="509" type="line"/>
      <point x="145" y="509" type="line"/>
      <point x="22" y="513" type="line"/>
    </contour>
  </outline>
</glyph>
<glyph name="F" format="1">
  <advance width="466"/>
  <unicode hex="0046"/>
  <outline>
    <contour>
      <point x="70" y="645" type="line"/>
      <point x="79" y="191" type="line"/>
      <point x="70" y="0" type="line"/>
      <point x="233" y="0" type="line"/>
      <point x="226" y="207" type="line"/>
      <point x="235" y="645" type="line"/>
    </contour>
    <contour>
      <point x="311" y="368" type="line"/>
      <point x="187" y="368" type="line"/>
      <point x="187" y="242" type="line"/>
      <point x="299" y="242" type="line"/>
      <point x="422" y="239" type="line"/>
      <point x="432" y="359" type="line"/>
      <point x="423" y="371" type="line"/>
    </contour>
    <contour>
      <point x="179" y="645" type="line"/>
      <point x="178" y="528" type="line"/>
      <point x="179" y="518" type="line"/>
      <point x="316" y="519" type="line"/>
      <point x="472" y="513" type="line"/>
      <point x="483" y="633" type="line"/>
      <point x="474" y="645" type="line"/>
    </contour>
  </outline>
</glyph>
<glyph name="L" format="1">
  <advance width="441"/>
  <unicode hex="004C"/>
  <outline>
    <contour>
      <point x="66" y="645" type="line"/>
      <point x="75" y="191" type="line"/>
      <point x="66" y="0" type="line"/>
      <point x="229" y="0" type="line"/>
      <point x="222" y="207" type="line"/>
      <point x="231" y="645" type="line"/>
    </contour>
    <contour>
      <point x="167" y="133" type="line"/>
      <point x="166" y="10" type="line"/>
      <point x="167" y="0" type="line"/>
      <point x="430" y="0" type="line"/>
      <point x="440" y="121" type="line"/>
      <point x="431" y="133" type="line"/>
    </contour>
    <contour>
      <point x="233" y="0" type="move" name="bottom"/>
    </contour>
    <contour>
      <point x="216" y="645" type="move" name="top"/>
    </contour>
  </outline>
</glyph>
<glyph name="P" format="1">
  <advance width="570"/>
  <unicode hex="0050"/>
  <outline>
    <contour>
      <point x="71" y="645" type="line"/>
      <point x="165" y="523" type="line"/>
      <point x="288" y="530" type="line"/>
      <point x="357" y="527"/>
      <point x="390" y="497"/>
      <point x="390" y="430" type="curve" smooth="yes"/>
      <point x="390" y="367"/>
      <point x="365" y="330"/>
      <point x="314" y="313" type="curve"/>
      <point x="129" y="321" type="line"/>
      <point x="129" y="196" type="line"/>
      <point x="285" y="196" type="line"/>
      <point x="452" y="196"/>
      <point x="559" y="295"/>
      <point x="559" y="446" type="curve" smooth="yes"/>
      <point x="559" y="574"/>
      <point x="481" y="646"/>
      <point x="343" y="646" type="curve"/>
    </contour>
    <contour>
      <point x="70" y="645" type="line"/>
      <point x="79" y="191" type="line"/>
      <point x="70" y="0" type="line"/>
      <point x="233" y="0" type="line"/>
      <point x="226" y="207" type="line"/>
      <point x="235" y="645" type="line"/>
    </contour>
  </outline>
</glyph>
<glyph name="R" format="1">
  <advance width="607"/>
  <unicode hex="0052"/>
  <outline>
    <contour>
      <point x="71" y="645" type="line"/>
      <point x="165" y="523" type="line"/>
      <point x="288" y="530" type="line"/>
      <point x="357" y="527"/>
      <point x="390" y="499"/>
      <point x="390" y="436" type="curve" smooth="yes"/>
      <point x="390" y="378"/>
      <point x="366" y="343"/>
      <point x="317" y="325" type="curve"/>
      <point x="129" y="334" type="line"/>
      <point x="129" y="207" type="line"/>
      <point x="327" y="207" type="line"/>
      <point x="468" y="238"/>
      <point x="560" y="334"/>
      <point x="560" y="451" type="curve" smooth="yes"/>
      <point x="560" y="577"/>
      <point x="481" y="646"/>
      <point x="343" y="646" type="curve"/>
    </contour>
    <contour>
      <point x="70" y="645" type="line"/>
      <point x="79" y="191" type="line"/>
      <point x="70" y="0" type="line"/>
      <point x="233" y="0" type="line"/>
      <point x="226" y="207" type="line"/>
      <point x="235" y="645" type="line"/>
    </contour>
    <contour>
      <point x="276" y="286" type="line"/>
      <point x="317" y="189"/>
      <point x="367" y="94"/>
      <point x="415" y="2" type="curve"/>
      <point x="432" y="-11" type="line"/>
      <point x="487" y="-7"/>
      <point x="540" y="3"/>
      <point x="592" y="20" type="curve"/>
      <point x="595" y="38" type="line"/>
      <point x="533" y="120"/>
      <point x="476" y="204"/>
      <point x="424" y="288" type="curve"/>
    </contour>
    <contour>
      <point x="304" y="0" type="move" name="bottom"/>
    </contour>
    <contour>
      <point x="304" y="645" type="move" name="top"/>
    </contour>
  </outline>
</glyph>
<glyph name="T" format="1">
  <advance width="510"/>
  <unicode hex="0054"/>
  <outline>
    <contour>
      <point x="177" y="628" type="line"/>
      <point x="184" y="191" type="line"/>
      <point x="175" y="0" type="line"/>
      <point x="337" y="0" type="line"/>
      <point x="331" y="207" type="line"/>
      <point x="338" y="628" type="line"/>
    </contour>
    <contour>
      <point x="22" y="645" type="line"/>
      <point x="12" y="526" type="line"/>
      <point x="22" y="514" type="line"/>
      <point x="149" y="520" type="line"/>
      <point x="364" y="520" type="line"/>
      <point x="489" y="514" type="line"/>
      <point x="499" y="633" type="line"/>
      <point x="489" y="645" type="line"/>
    </contour>
    <contour>
      <point x="254" y="0" type="move" name="bottom"/>
    </contour>
    <contour>
      <point x="257" y="323" type="move" name="center"/>
    </contour>
    <contour>
      <point x="257" y="645" type="move" name="top"/>
    </contour>
  </outline>
</glyph>
<glyph name="U" format="1">
  <advance width="644"/>
  <unicode hex="0055"/>
  <outline>
    <contour>
      <point x="425" y="645" type="line"/>
      <point x="432" y="240" type="line" smooth="yes"/>
      <point x="433" y="158"/>
      <point x="397" y="120"/>
      <point x="320" y="120" type="curve" smooth="yes"/>
      <point x="243" y="120"/>
      <point x="209" y="159"/>
      <point x="210" y="244" type="curve" smooth="yes"/>
      <point x="217" y="645" type="line"/>
      <point x="55" y="645" type="line"/>
      <point x="59" y="320" type="line"/>
      <point x="57" y="222" type="line" smooth="yes"/>
      <point x="53" y="73"/>
      <point x="145" y="-10"/>
      <point x="312" y="-10" type="curve" smooth="yes"/>
      <point x="486" y="-10"/>
      <point x="583" y="74"/>
      <point x="583" y="225" type="curve" smooth="yes"/>
      <point x="584" y="318" type="line"/>
      <point x="589" y="645" type="line"/>
    </contour>
    <contour>
      <point x="565" y="10" type="move" name="ogonek"/>
    </contour>
    <contour>
      <point x="323" y="645" type="move" name="top"/>
    </contour>
  </outline>
</glyph>
<glyph name="Z" format="1">
  <advance width="557"/>
  <unicode hex="005A"/>
  <outline>
    <contour>
      <point x="454" y="645" type="line"/>
      <point x="180" y="645" type="line"/>
      <point x="42" y="647" type="line"/>
      <point x="30" y="521" type="line"/>
      <point x="36" y="514" type="line"/>
      <point x="150" y="523" type="line"/>
      <point x="334" y="523" type="line"/>
      <point x="29" y="111" type="line"/>
      <point x="29" y="-5" type="line"/>
      <point x="116" y="0" type="line"/>
      <point x="362" y="0" type="line"/>
      <point x="521" y="-4" type="line"/>
      <point x="534" y="122" type="line"/>
      <point x="528" y="130" type="line"/>
      <point x="414" y="122" type="line"/>
      <point x="220" y="122" type="line"/>
      <point x="522" y="529" type="line"/>
      <point x="522" y="646" type="line"/>
    </contour>
    <contour>
      <point x="280" y="645" type="move" name="top"/>
    </contour>
  </outline>
</glyph>
<glyph name="a" format="1">
  <advance width="537"/>
  <unicode hex="0061"/>
  <outline>
    <contour>
      <point x="183" y="508" type="line"/>
      <point x="13" y="0" type="line"/>
      <point x="160" y="0" type="line"/>
      <point x="175" y="90" type="line"/>
      <point x="265" y="373" type="line"/>
      <point x="274" y="373" type="line"/>
      <point x="350" y="81" type="line"/>
      <point x="364" y="0" type="line"/>
      <point x="517" y="0" type="line"/>
      <point x="363" y="508" type="line"/>
    </contour>
    <contour>
      <point x="264" y="200" type="line"/>
      <point x="152" y="202" type="line"/>
      <point x="152" y="88" type="line"/>
      <point x="255" y="91" type="line"/>
      <point x="363" y="89" type="line"/>
      <point x="362" y="201" type="line"/>
    </contour>
    <contour>
      <point x="513" y="8" type="move" name="ogonek"/>
    </contour>
    <contour>
      <point x="275" y="508" type="move" name="top"/>
    </contour>
  </outline>
</glyph>
<glyph name="d" format="1">
  <advance width="572"/>
  <unicode hex="0064"/>
  <outline>
    <contour>
      <point x="65" y="508" type="line"/>
      <point x="199" y="388" type="line"/>
      <point x="228" y="392"/>
      <point x="268" y="393"/>
      <point x="288" y="393" type="curve" smooth="yes"/>
      <point x="360" y="393"/>
      <point x="389" y="353"/>
      <point x="389" y="238" type="curve" smooth="yes"/>
      <point x="389" y="141"/>
      <point x="352" y="106"/>
      <point x="292" y="106" type="curve" smooth="yes"/>
      <point x="271" y="106"/>
      <point x="221" y="111"/>
      <point x="194" y="116" type="curve"/>
      <point x="65" y="0" type="line"/>
      <point x="127" y="-4"/>
      <point x="214" y="-7"/>
      <point x="264" y="-7" type="curve" smooth="yes"/>
      <point x="445" y="-7"/>
      <point x="546" y="93"/>
      <point x="546" y="274" type="curve" smooth="yes"/>
      <point x="546" y="427"/>
      <point x="458" y="512"/>
      <point x="300" y="512" type="curve"/>
    </contour>
    <contour>
      <point x="65" y="508" type="line"/>
      <point x="72" y="149" type="line"/>
      <point x="65" y="0" type="line"/>
      <point x="216" y="0" type="line"/>
      <point x="209" y="164" type="line"/>
      <point x="218" y="508" type="line"/>
    </contour>
    <contour>
      <point x="274" y="255" type="move" name="center"/>
    </contour>
    <contour>
      <point x="271" y="508" type="move" name="top"/>
    </contour>
  </outline>
</glyph>
<glyph name="e" format="1">
  <advance width="466"/>
  <unicode hex="0065"/>
  <outline>
    <contour>
      <point x="65" y="508" type="line"/>
      <point x="72" y="149" type="line"/>
      <point x="65" y="0" type="line"/>
      <point x="216" y="0" type="line"/>
      <point x="209" y="164" type="line"/>
      <point x="218" y="508" type="line"/>
    </contour>
    <contour>
      <point x="295" y="116" type="line"/>
      <point x="166" y="116" type="line"/>
      <point x="165" y="9" type="line"/>
      <point x="166" y="0" type="line"/>
      <point x="432" y="0" type="line"/>
      <point x="442" y="111" type="line"/>
      <point x="433" y="121" type="line"/>
    </contour>
    <contour>
      <point x="299" y="314" type="line"/>
      <point x="173" y="314" type="line"/>
      <point x="173" y="206" type="line"/>
      <point x="173" y="197" type="line"/>
      <point x="289" y="198" type="line"/>
      <point x="385" y="195" type="line"/>
      <point x="395" y="306" type="line"/>
      <point x="386" y="317" type="line"/>
    </contour>
    <contour>
      <point x="166" y="508" type="line"/>
      <point x="165" y="400" type="line"/>
      <point x="166" y="392" type="line"/>
      <point x="305" y="392" type="line"/>
      <point x="437" y="387" type="line"/>
      <point x="446" y="497" type="line"/>
      <point x="438" y="508" type="line"/>
    </contour>
    <contour>
      <point x="255" y="0" type="move" name="bottom"/>
    </contour>
    <contour>
      <point x="437" y="8" type="move" name="ogonek"/>
    </contour>
    <contour>
      <point x="250" y="508" type="move" name="top"/>
    </contour>
  </outline>
</glyph>
<glyph name="g" format="1">
  <advance width="518"/>
  <unicode hex="0067"/>
  <outline>
    <contour>
      <point x="134" y="516"/>
      <point x="27" y="421"/>
      <point x="27" y="242" type="curve" smooth="yes"/>
      <point x="27" y="83"/>
      <point x="113" y="-9"/>
      <point x="289" y="-9" type="curve" smooth="yes"/>
      <point x="346" y="-9"/>
      <point x="410" y="2"/>
      <point x="478" y="25" type="curve"/>
      <point x="478" y="162" type="line"/>
      <point x="480" y="231" type="line"/>
      <point x="343" y="222" type="line"/>
      <point x="344" y="137" type="line"/>
      <point x="344" y="113" type="line"/>
      <point x="328" y="108"/>
      <point x="317" y="106"/>
      <point x="301" y="106" type="curve" smooth="yes"/>
      <point x="213" y="106"/>
      <point x="184" y="136"/>
      <point x="184" y="250" type="curve" smooth="yes"/>
      <point x="184" y="366"/>
      <point x="215" y="396"/>
      <point x="295" y="396" type="curve" smooth="yes"/>
      <point x="345" y="396"/>
      <point x="381" y="384"/>
      <point x="433" y="357" type="curve"/>
      <point x="445" y="357" type="line"/>
      <point x="481" y="492" type="line"/>
      <point x="435" y="508"/>
      <point x="381" y="516"/>
      <point x="323" y="516" type="curve" smooth="yes"/>
    </contour>
    <contour>
      <point x="265" y="0" type="move" name="bottom"/>
    </contour>
    <contour>
      <point x="273" y="508" type="move" name="top"/>
    </contour>
  </outline>
</glyph>
<glyph name="i" format="1">
  <advance width="289"/>
  <unicode hex="0069"/>
  <outline>
    <contour>
      <point x="65" y="508" type="line"/>
      <point x="72" y="149" type="line"/>
      <point x="65" y="0" type="line"/>
      <point x="216" y="0" type="line"/>
      <point x="209" y="164" type="line"/>
      <point x="218" y="508" type="line"/>
    </contour>
    <contour>
      <point x="226" y="8" type="move" name="ogonek"/>
    </contour>
    <contour>
      <point x="146" y="508" type="move" name="top"/>
    </contour>
  </outline>
</glyph>
<glyph name="j" format="1">
  <advance width="328"/>
  <unicode hex="006A"/>
  <outline>
    <contour>
      <point x="106" y="508" type="line"/>
      <point x="112" y="152" type="line"/>
      <point x="112" y="96" type="line"/>
      <point x="112" y="48"/>
      <point x="92" y="22"/>
      <point x="33" y="-5" type="curve"/>
      <point x="33" y="-17" type="line"/>
      <point x="78" y="-93" type="line"/>
      <point x="209" y="-46"/>
      <point x="252" y="3"/>
      <point x="252" y="97" type="curve"/>
      <point x="250" y="167" type="line"/>
      <point x="257" y="508" type="line"/>
    </contour>
    <contour>
      <point x="25" y="508" type="line"/>
      <point x="16" y="405" type="line"/>
      <point x="25" y="396" type="line"/>
      <point x="124" y="398" type="line"/>
      <point x="123" y="508" type="line"/>
    </contour>
  </outline>
</glyph>
<glyph name="k" format="1">
  <advance width="535"/>
  <unicode hex="006B"/>
  <outline>
    <contour>
      <point x="360" y="508" type="line"/>
      <point x="330" y="454" type="line"/>
      <point x="200" y="270" type="line"/>
      <point x="200" y="261" type="line"/>
      <point x="253" y="171"/>
      <point x="309" y="85"/>
      <point x="367" y="-1" type="curve"/>
      <point x="385" y="-10" type="line"/>
      <point x="435" y="-5"/>
      <point x="485" y="3"/>
      <point x="535" y="15" type="curve"/>
      <point x="537" y="32" type="line"/>
      <point x="472" y="108"/>
      <point x="409" y="187"/>
      <point x="352" y="268" type="curve"/>
      <point x="522" y="509" type="line"/>
    </contour>
    <contour>
      <point x="65" y="508" type="line"/>
      <point x="72" y="149" type="line"/>
      <point x="65" y="0" type="line"/>
      <point x="216" y="0" type="line"/>
      <point x="209" y="164" type="line"/>
      <point x="218" y="508" type="line"/>
    </contour>
    <contour>
      <point x="255" y="0" type="move" name="bottom"/>
    </contour>
    <contour>
      <point x="253" y="508" type="move" name="top"/>
    </contour>
  </outline>
</glyph>
<glyph name="m" format="1">
  <advance width="688"/>
  <unicode hex="006D"/>
  <outline>
    <contour>
      <point x="431" y="508" type="line"/>
      <point x="410" y="431" type="line"/>
      <point x="349" y="246" type="line"/>
      <point x="339" y="246" type="line"/>
      <point x="283" y="435" type="line"/>
      <point x="266" y="508" type="line"/>
      <point x="88" y="508" type="line"/>
      <point x="36" y="0" type="line"/>
      <point x="164" y="0" type="line"/>
      <point x="173" y="168" type="line"/>
      <point x="186" y="287" type="line"/>
      <point x="196" y="287" type="line"/>
      <point x="278" y="48" type="line"/>
      <point x="393" y="48" type="line"/>
      <point x="489" y="287" type="line"/>
      <point x="497" y="287" type="line"/>
      <point x="510" y="154" type="line"/>
      <point x="514" y="0" type="line"/>
      <point x="649" y="0" type="line"/>
      <point x="604" y="508" type="line"/>
    </contour>
  </outline>
</glyph>
<glyph name="n" format="1">
  <advance width="608"/>
  <unicode hex="006E"/>
  <outline>
    <contour>
      <point x="407" y="503" type="line"/>
      <point x="411" y="227" type="line"/>
      <point x="402" y="227" type="line"/>
      <point x="228" y="508" type="line"/>
      <point x="65" y="508" type="line"/>
      <point x="72" y="149" type="line"/>
      <point x="65" y="0" type="line"/>
      <point x="201" y="0" type="line"/>
      <point x="196" y="182" type="line"/>
      <point x="197" y="282" type="line"/>
      <point x="205" y="282" type="line"/>
      <point x="379" y="0" type="line"/>
      <point x="542" y="0" type="line"/>
      <point x="537" y="165" type="line"/>
      <point x="545" y="511" type="line"/>
    </contour>
    <contour>
      <point x="303" y="0" type="move" name="bottom"/>
    </contour>
    <contour>
      <point x="303" y="508" type="move" name="top"/>
    </contour>
  </outline>
</glyph>
<glyph name="o" format="1">
  <advance width="562"/>
  <unicode hex="006F"/>
  <outline>
    <contour>
      <point x="123" y="517"/>
      <point x="27" y="418"/>
      <point x="27" y="246" type="curve" smooth="yes"/>
      <point x="27" y="83"/>
      <point x="115" y="-10"/>
      <point x="270" y="-10" type="curve" smooth="yes"/>
      <point x="439" y="-10"/>
      <point x="536" y="91"/>
      <point x="536" y="267" type="curve" smooth="yes"/>
      <point x="536" y="426"/>
      <point x="448" y="517"/>
      <point x="293" y="517" type="curve" smooth="yes"/>
    </contour>
    <contour>
      <point x="354" y="397"/>
      <point x="379" y="362"/>
      <point x="379" y="235" type="curve" smooth="yes"/>
      <point x="379" y="132"/>
      <point x="354" y="104"/>
      <point x="283" y="104" type="curve" smooth="yes"/>
      <point x="209" y="104"/>
      <point x="184" y="137"/>
      <point x="184" y="266" type="curve" smooth="yes"/>
      <point x="184" y="368"/>
      <point x="209" y="397"/>
      <point x="279" y="397" type="curve" smooth="yes"/>
    </contour>
    <contour>
      <point x="283" y="508" type="move" name="top"/>
    </contour>
  </outline>
</glyph>
<glyph name="p" format="1">
  <advance width="507"/>
  <unicode hex="0070"/>
  <outline>
    <contour>
      <point x="65" y="508" type="line"/>
      <point x="153" y="396" type="line"/>
      <point x="254" y="403" type="line"/>
      <point x="308" y="400"/>
      <point x="333" y="381"/>
      <point x="333" y="333" type="curve" smooth="yes"/>
      <point x="333" y="291"/>
      <point x="316" y="268"/>
      <point x="279" y="253" type="curve"/>
      <point x="118" y="261" type="line"/>
      <point x="118" y="147" type="line"/>
      <point x="255" y="147" type="line"/>
      <point x="397" y="147"/>
      <point x="491" y="227"/>
      <point x="491" y="348" type="curve" smooth="yes"/>
      <point x="491" y="451"/>
      <point x="424" y="509"/>
      <point x="306" y="509" type="curve"/>
    </contour>
    <contour>
      <point x="65" y="508" type="line"/>
      <point x="72" y="149" type="line"/>
      <point x="65" y="0" type="line"/>
      <point x="216" y="0" type="line"/>
      <point x="209" y="164" type="line"/>
      <point x="218" y="508" type="line"/>
    </contour>
  </outline>
</glyph>
<glyph name="q" format="1">
  <advance width="568"/>
  <unicode hex="0071"/>
  <outline>
    <contour>
      <point x="123" y="517"/>
      <point x="27" y="418"/>
      <point x="27" y="246" type="curve" smooth="yes"/>
      <point x="27" y="83"/>
      <point x="115" y="-10"/>
      <point x="270" y="-10" type="curve" smooth="yes"/>
      <point x="439" y="-10"/>
      <point x="536" y="91"/>
      <point x="536" y="267" type="curve" smooth="yes"/>
      <point x="536" y="426"/>
      <point x="448" y="517"/>
      <point x="293" y="517" type="curve" smooth="yes"/>
    </contour>
    <contour>
      <point x="276" y="10" type="line"/>
      <point x="353" y="-58"/>
      <point x="441" y="-114"/>
      <point x="540" y="-160" type="curve"/>
      <point x="551" y="-158" type="line"/>
      <point x="581" y="-130"/>
      <point x="599" y="-103"/>
      <point x="620" y="-66" type="curve"/>
      <point x="614" y="-52" type="line"/>
      <point x="527" y="-27"/>
      <point x="444" y="8"/>
      <point x="367" y="53" type="curve"/>
    </contour>
    <contour>
      <point x="354" y="397"/>
      <point x="379" y="362"/>
      <point x="379" y="235" type="curve" smooth="yes"/>
      <point x="379" y="132"/>
      <point x="354" y="104"/>
      <point x="283" y="104" type="curve" smooth="yes"/>
      <point x="209" y="104"/>
      <point x="184" y="137"/>
      <point x="184" y="266" type="curve" smooth="yes"/>
      <point x="184" y="368"/>
      <point x="209" y="397"/>
      <point x="279" y="397" type="curve" smooth="yes"/>
    </contour>
  </outline>
</glyph>
<glyph name="r" format="1">
  <advance width="538"/>
  <unicode hex="0072"/>
  <outline>
    <contour>
      <point x="65" y="508" type="line"/>
      <point x="153" y="396" type="line"/>
      <point x="254" y="403" type="line"/>
      <point x="309" y="400"/>
      <point x="333" y="382"/>
      <point x="333" y="338" type="curve" smooth="yes"/>
      <point x="333" y="299"/>
      <point x="316" y="276"/>
      <point x="279" y="262" type="curve"/>
      <point x="118" y="271" type="line"/>
      <point x="118" y="154" type="line"/>
      <point x="288" y="155" type="line"/>
      <point x="411" y="179"/>
      <point x="491" y="258"/>
      <point x="491" y="353" type="curve" smooth="yes"/>
      <point x="491" y="453"/>
      <point x="424" y="509"/>
      <point x="306" y="509" type="curve"/>
    </contour>
    <contour>
      <point x="65" y="508" type="line"/>
      <point x="72" y="149" type="line"/>
      <point x="65" y="0" type="line"/>
      <point x="216" y="0" type="line"/>
      <point x="209" y="164" type="line"/>
      <point x="218" y="508" type="line"/>
    </contour>
    <contour>
      <point x="243" y="227" type="line"/>
      <point x="275" y="151"/>
      <point x="314" y="77"/>
      <point x="352" y="6" type="curve"/>
      <point x="373" y="-9" type="line"/>
      <point x="423" y="-6"/>
      <point x="471" y="4"/>
      <point x="518" y="18" type="curve"/>
      <point x="521" y="35" type="line"/>
      <point x="469" y="98"/>
      <point x="423" y="163"/>
      <point x="379" y="228" type="curve"/>
    </contour>
    <contour>
      <point x="255" y="0" type="move" name="bottom"/>
    </contour>
    <contour>
      <point x="255" y="508" type="move" name="top"/>
    </contour>
  </outline>
</glyph>
<glyph name="s" format="1">
  <advance width="455"/>
  <unicode hex="0073"/>
  <outline>
    <contour>
      <point x="124" y="517"/>
      <point x="46" y="442"/>
      <point x="46" y="347" type="curve" smooth="yes"/>
      <point x="46" y="185"/>
      <point x="268" y="199"/>
      <point x="268" y="133" type="curve" smooth="yes"/>
      <point x="268" y="113"/>
      <point x="250" y="98"/>
      <point x="221" y="98" type="curve" smooth="yes"/>
      <point x="180" y="98"/>
      <point x="116" y="124"/>
      <point x="68" y="166" type="curve"/>
      <point x="53" y="155" type="line"/>
      <point x="32" y="20" type="line"/>
      <point x="93" y="-2"/>
      <point x="156" y="-10"/>
      <point x="202" y="-10" type="curve" smooth="yes"/>
      <point x="354" y="-10"/>
      <point x="416" y="76"/>
      <point x="416" y="161" type="curve" smooth="yes"/>
      <point x="416" y="321"/>
      <point x="195" y="306"/>
      <point x="195" y="372" type="curve" smooth="yes"/>
      <point x="195" y="390"/>
      <point x="210" y="405"/>
      <point x="239" y="405" type="curve" smooth="yes"/>
      <point x="268" y="405"/>
      <point x="316" y="388"/>
      <point x="361" y="356" type="curve"/>
      <point x="383" y="361" type="line"/>
      <point x="405" y="491" type="line"/>
      <point x="363" y="506"/>
      <point x="310" y="517"/>
      <point x="259" y="517" type="curve" smooth="yes"/>
    </contour>
    <contour>
      <point x="208" y="0" type="move" name="bottom"/>
    </contour>
    <contour>
      <point x="238" y="508" type="move" name="top"/>
    </contour>
  </outline>
</glyph>
<glyph name="t" format="1">
  <advance width="451"/>
  <unicode hex="0074"/>
  <outline>
    <contour>
      <point x="153" y="492" type="line"/>
      <point x="158" y="149" type="line"/>
      <point x="151" y="0" type="line"/>
      <point x="301" y="0" type="line"/>
      <point x="295" y="164" type="line"/>
      <point x="301" y="492" type="line"/>
    </contour>
    <contour>
      <point x="27" y="508" type="line"/>
      <point x="18" y="396" type="line"/>
      <point x="27" y="385" type="line"/>
      <point x="135" y="391" type="line"/>
      <point x="316" y="391" type="line"/>
      <point x="423" y="385" type="line"/>
      <point x="431" y="497" type="line"/>
      <point x="423" y="508" type="line"/>
    </contour>
    <contour>
      <point x="225" y="0" type="move" name="bottom"/>
    </contour>
    <contour>
      <point x="212" y="255" type="move" name="center"/>
    </contour>
    <contour>
      <point x="215" y="508" type="move" name="top"/>
    </contour>
  </outline>
</glyph>
<glyph name="x" format="1">
  <advance width="544"/>
  <unicode hex="0078"/>
  <outline>
    <contour>
      <point x="368" y="508" type="line"/>
      <point x="344" y="454" type="line"/>
      <point x="279" y="360" type="line"/>
      <point x="219" y="446" type="line"/>
      <point x="192" y="508" type="line"/>
      <point x="11" y="508" type="line"/>
      <point x="179" y="245" type="line"/>
      <point x="14" y="0" type="line"/>
      <point x="167" y="0" type="line"/>
      <point x="193" y="53" type="line"/>
      <point x="266" y="150" type="line"/>
      <point x="328" y="61" type="line"/>
      <point x="355" y="0" type="line"/>
      <point x="534" y="0" type="line"/>
      <point x="368" y="268" type="line"/>
      <point x="525" y="508" type="line"/>
    </contour>
  </outline>
</glyph>
<glyph name="y" format="1">
  <advance width="508"/>
  <unicode hex="0079"/>
  <outline>
    <contour>
      <point x="355" y="508" type="line"/>
      <point x="337" y="461" type="line"/>
      <point x="256" y="308" type="line"/>
      <point x="248" y="308" type="line"/>
      <point x="177" y="467" type="line"/>
      <point x="164" y="508" type="line"/>
      <point x="6" y="508" type="line"/>
      <point x="220" y="71" type="line"/>
      <point x="268" y="71" type="line"/>
      <point x="509" y="508" type="line"/>
    </contour>
    <contour>
      <point x="176" y="222" type="line"/>
      <point x="179" y="135" type="line"/>
      <point x="172" y="0" type="line"/>
      <point x="322" y="0" type="line"/>
      <point x="316" y="135" type="line"/>
      <point x="320" y="222" type="line"/>
    </contour>
    <contour>
      <point x="260" y="508" type="move" name="top"/>
    </contour>
  </outline>
</glyph>
<glyph name="bar" format="1">
  <advance width="304"/>
  <unicode hex="007C"/>
  <outline>
    <contour>
      <point x="93" y="797" type="line"/>
      <point x="92" y="280" type="line"/>
      <point x="91" y="-244" type="line"/>
      <point x="103" y="-258" type="line"/>
      <point x="211" y="-249" type="line"/>
      <point x="210" y="292" type="line"/>
      <point x="214" y="795" type="line"/>
      <point x="203" y="806" type="line"/>
    </contour>
  </outline>
</glyph>
<glyph name="asciitilde" format="1">
  <advance width="480"/>
  <unicode hex="007E"/>
  <outline>
    <contour>
      <point x="183" y="226"/>
      <point x="304" y="181"/>
      <point x="361" y="173" type="curve"/>
      <point x="375" y="178" type="line"/>
      <point x="460" y="280" type="line"/>
      <point x="460" y="293" type="line"/>
      <point x="419" y="345" type="line"/>
      <point x="406" y="345" type="line"/>
      <point x="377" y="314"/>
      <point x="355" y="287"/>
      <point x="332" y="287" type="curve" smooth="yes"/>
      <point x="298" y="287"/>
      <point x="177" y="332"/>
      <point x="120" y="342" type="curve"/>
      <point x="106" y="335" type="line"/>
      <point x="20" y="234" type="line"/>
      <point x="20" y="220" type="line"/>
      <point x="62" y="168" type="line"/>
      <point x="76" y="168" type="line"/>
      <point x="104" y="198"/>
      <point x="126" y="226"/>
      <point x="150" y="226" type="curve" smooth="yes"/>
    </contour>
  </outline>
</glyph>
<glyph name="currency" format="1">
  <advance width="434"/>
  <unicode hex="00A4"/>
  <outline>
    <contour>
      <point x="353" y="562" type="line"/>
      <point x="294" y="492" type="line"/>
      <point x="274" y="502"/>
      <point x="250" y="509"/>
      <point x="225" y="509" type="curve" smooth="yes"/>
      <point x="198" y="509"/>
      <point x="173" y="502"/>
      <point x="151" y="489" type="curve"/>
      <point x="90" y="559" type="line"/>
      <point x="76" y="560" type="line"/>
      <point x="8" y="488" type="line"/>
      <point x="10" y="474" type="line"/>
      <point x="79" y="416" type="line"/>
      <point x="68" y="395"/>
      <point x="61" y="371"/>
      <point x="61" y="345" type="curve" smooth="yes"/>
      <point x="61" y="318"/>
      <point x="69" y="292"/>
      <point x="82" y="270" type="curve"/>
      <point x="13" y="210" type="line"/>
      <point x="12" y="196" type="line"/>
      <point x="84" y="128" type="line"/>
      <point x="98" y="130" type="line"/>
      <point x="155" y="199" type="line"/>
      <point x="176" y="188"/>
      <point x="201" y="181"/>
      <point x="225" y="181" type="curve" smooth="yes"/>
      <point x="253" y="181"/>
      <point x="280" y="188"/>
      <point x="303" y="202" type="curve"/>
      <point x="363" y="132" type="line"/>
      <point x="377" y="132" type="line"/>
      <point x="445" y="204" type="line"/>
      <point x="443" y="219" type="line"/>
      <point x="372" y="276" type="line"/>
      <point x="383" y="297"/>
      <point x="389" y="320"/>
      <point x="389" y="345" type="curve" smooth="yes"/>
      <point x="389" y="372"/>
      <point x="382" y="398"/>
      <point x="369" y="421" type="curve"/>
      <point x="439" y="483" type="line"/>
      <point x="439" y="496" type="line"/>
      <point x="367" y="565" type="line"/>
    </contour>
    <contour>
      <point x="273" y="425"/>
      <point x="305" y="393"/>
      <point x="305" y="345" type="curve" smooth="yes"/>
      <point x="305" y="297"/>
      <point x="273" y="265"/>
      <point x="225" y="265" type="curve" smooth="yes"/>
      <point x="177" y="265"/>
      <point x="145" y="297"/>
      <point x="145" y="345" type="curve" smooth="yes"/>
      <point x="145" y="393"/>
      <point x="177" y="425"/>
      <point x="225" y="425" type="curve" smooth="yes"/>
    </contour>
  </outline>
</glyph>
<glyph name="copyright" format="1">
  <advance width="688"/>
  <unicode hex="00A9"/>
  <outline>
    <contour>
      <point x="163" y="598"/>
      <point x="42" y="476"/>
      <point x="42" y="293" type="curve" smooth="yes"/>
      <point x="42" y="110"/>
      <point x="163" y="-12"/>
      <point x="343" y="-12" type="curve" smooth="yes"/>
      <point x="525" y="-12"/>
      <point x="645" y="110"/>
      <point x="645" y="293" type="curve" smooth="yes"/>
      <point x="645" y="476"/>
      <point x="525" y="598"/>
      <point x="343" y="598" type="curve" smooth="yes"/>
    </contour>
    <contour>
      <point x="255" y="464"/>
      <point x="191" y="401"/>
      <point x="191" y="293" type="curve" smooth="yes"/>
      <point x="191" y="186"/>
      <point x="247" y="128"/>
      <point x="363" y="128" type="curve" smooth="yes"/>
      <point x="386" y="128"/>
      <point x="412" y="129"/>
      <point x="438" y="137" type="curve"/>
      <point x="446" y="219" type="line"/>
      <point x="437" y="223" type="line"/>
      <point x="418" y="217"/>
      <point x="390" y="213"/>
      <point x="371" y="213" type="curve" smooth="yes"/>
      <point x="322" y="213"/>
      <point x="301" y="242"/>
      <point x="301" y="304" type="curve" smooth="yes"/>
      <point x="301" y="359"/>
      <point x="320" y="379"/>
      <point x="365" y="379" type="curve" smooth="yes"/>
      <point x="385" y="379"/>
      <point x="412" y="374"/>
      <point x="431" y="364" type="curve"/>
      <point x="437" y="368" type="line"/>
      <point x="456" y="451" type="line"/>
      <point x="429" y="459"/>
      <point x="400" y="464"/>
      <point x="369" y="464" type="curve" smooth="yes"/>
    </contour>
    <contour>
      <point x="492" y="546"/>
      <point x="592" y="444"/>
      <point x="592" y="293" type="curve" smooth="yes"/>
      <point x="592" y="142"/>
      <point x="492" y="40"/>
      <point x="343" y="40" type="curve" smooth="yes"/>
      <point x="195" y="40"/>
      <point x="95" y="142"/>
      <point x="95" y="293" type="curve" smooth="yes"/>
      <point x="95" y="444"/>
      <point x="195" y="546"/>
      <point x="343" y="546" type="curve" smooth="yes"/>
    </contour>
  </outline>
</glyph>
<glyph name="degree" format="1">
  <advance width="292"/>
  <unicode hex="00B0"/>
  <outline>
    <contour>
      <point x="73" y="655"/>
      <point x="14" y="597"/>
      <point x="14" y="524" type="curve" smooth="yes"/>
      <point x="14" y="450"/>
      <point x="73" y="392"/>
      <point x="146" y="392" type="curve" smooth="yes"/>
      <point x="220" y="392"/>
      <point x="278" y="450"/>
      <point x="278" y="524" type="curve" smooth="yes"/>
      <point x="278" y="597"/>
      <point x="220" y="655"/>
      <point x="146" y="655" type="curve" smooth="yes"/>
    </contour>
    <contour>
      <point x="183" y="589"/>
      <point x="211" y="561"/>
      <point x="211" y="524" type="curve" smooth="yes"/>
      <point x="211" y="486"/>
      <point x="183" y="458"/>
      <point x="146" y="458" type="curve" smooth="yes"/>
      <point x="108" y="458"/>
      <point x="80" y="486"/>
      <point x="80" y="524" type="curve" smooth="yes"/>
      <point x="80" y="561"/>
      <point x="108" y="589"/>
      <point x="146" y="589" type="curve" smooth="yes"/>
    </contour>
  </outline>
</glyph>
<glyph name="Thorn" format="1">
  <advance width="578"/>
  <unicode hex="00DE"/>
  <outline>
    <contour>
      <point x="71" y="548" type="line"/>
      <point x="166" y="425" type="line"/>
      <point x="292" y="433" type="line"/>
      <point x="362" y="430"/>
      <point x="394" y="403"/>
      <point x="394" y="335" type="curve" smooth="yes"/>
      <point x="394" y="270"/>
      <point x="366" y="238"/>
      <point x="317" y="221" type="curve"/>
      <point x="129" y="230" type="line"/>
      <point x="129" y="102" type="line"/>
      <point x="289" y="105" type="line"/>
      <point x="467" y="105"/>
      <point x="566" y="194"/>
      <point x="566" y="347" type="curve" smooth="yes"/>
      <point x="566" y="482"/>
      <point x="487" y="549"/>
      <point x="347" y="549" type="curve"/>
    </contour>
    <contour>
      <point x="71" y="645" type="line"/>
      <point x="79" y="191" type="line"/>
      <point x="71" y="0" type="line"/>
      <point x="235" y="0" type="line"/>
      <point x="229" y="207" type="line"/>
      <point x="237" y="645" type="line"/>
    </contour>
  </outline>
</glyph>
<glyph name="germandbls" format="1">
  <advance width="602"/>
  <unicode hex="00DF"/>
  <outline>
    <contour>
      <point x="141" y="517"/>
      <point x="56" y="438"/>
      <point x="56" y="319" type="curve" smooth="yes"/>
      <point x="59" y="149" type="line"/>
      <point x="52" y="0" type="line"/>
      <point x="203" y="0" type="line"/>
      <point x="196" y="164" type="line"/>
      <point x="200" y="319" type="line"/>
      <point x="200" y="374"/>
      <point x="227" y="398"/>
      <point x="292" y="398" type="curve" smooth="yes"/>
      <point x="317" y="398"/>
      <point x="335" y="394"/>
      <point x="359" y="385" type="curve"/>
      <point x="263" y="261" type="line"/>
      <point x="266" y="245" type="line"/>
      <point x="378" y="193"/>
      <point x="421" y="175"/>
      <point x="421" y="144" type="curve" smooth="yes"/>
      <point x="421" y="124"/>
      <point x="405" y="110"/>
      <point x="379" y="110" type="curve" smooth="yes"/>
      <point x="349" y="110"/>
      <point x="308" y="129"/>
      <point x="268" y="163" type="curve"/>
      <point x="256" y="155" type="line"/>
      <point x="235" y="21" type="line"/>
      <point x="281" y="2"/>
      <point x="337" y="-9"/>
      <point x="389" y="-9" type="curve" smooth="yes"/>
      <point x="493" y="-9"/>
      <point x="585" y="36"/>
      <point x="585" y="143" type="curve" smooth="yes"/>
      <point x="585" y="208"/>
      <point x="548" y="240"/>
      <point x="438" y="303" type="curve"/>
      <point x="545" y="443" type="line"/>
      <point x="539" y="460" type="line"/>
      <point x="453" y="498"/>
      <point x="388" y="517"/>
      <point x="306" y="517" type="curve" smooth="yes"/>
    </contour>
  </outline>
</glyph>
<glyph name="ae" format="1">
  <advance width="716"/>
  <unicode hex="00E6"/>
  <outline>
    <contour>
      <point x="243" y="508" type="line"/>
      <point x="-7" y="0" type="line"/>
      <point x="129" y="0" type="line"/>
      <point x="155" y="85" type="line"/>
      <point x="303" y="382" type="line"/>
      <point x="312" y="382" type="line"/>
      <point x="348" y="77" type="line"/>
      <point x="352" y="0" type="line"/>
      <point x="698" y="0" type="line"/>
      <point x="707" y="103" type="line"/>
      <point x="699" y="113" type="line"/>
      <point x="559" y="108" type="line"/>
      <point x="477" y="108" type="line"/>
      <point x="444" y="401" type="line"/>
      <point x="513" y="401" type="line"/>
      <point x="643" y="395" type="line"/>
      <point x="653" y="497" type="line"/>
      <point x="644" y="508" type="line"/>
    </contour>
    <contour>
      <point x="432" y="283" type="line"/>
      <point x="141" y="203" type="line"/>
      <point x="109" y="87" type="line"/>
      <point x="446" y="180" type="line"/>
      <point x="634" y="226" type="line"/>
      <point x="622" y="324" type="line"/>
      <point x="613" y="332" type="line"/>
    </contour>
    <contour>
      <point x="421" y="507" type="move" name="top"/>
    </contour>
  </outline>
</glyph>
<glyph name="eth" format="1">
  <advance width="603"/>
  <unicode hex="00F0"/>
  <outline>
    <contour>
      <point x="25" y="297" type="line"/>
      <point x="19" y="214" type="line"/>
      <point x="27" y="203" type="line"/>
      <point x="336" y="203" type="line"/>
      <point x="342" y="286" type="line"/>
      <point x="335" y="297" type="line"/>
    </contour>
    <component base="d" xOffset="27"/>
  </outline>
</glyph>
<glyph name="oslash" format="1">
  <advance width="562"/>
  <unicode hex="00F8"/>
  <outline>
    <contour>
      <point x="143" y="109" type="line"/>
      <point x="44" y="-62" type="line"/>
      <point x="48" y="-75" type="line"/>
      <point x="138" y="-120" type="line"/>
      <point x="238" y="52" type="line"/>
    </contour>
    <contour>
      <point x="428" y="387" type="line"/>
      <point x="521" y="546" type="line"/>
      <point x="514" y="560" type="line"/>
      <point x="428" y="604" type="line"/>
      <point x="335" y="446" type="line"/>
    </contour>
    <component base="o"/>
    <contour>
      <point x="271" y="510" type="move" name="top"/>
    </contour>
  </outline>
</glyph>
<glyph name="aogonek" format="1">
  <advance width="537"/>
  <unicode hex="0105"/>
  <outline>
    <contour>
      <point x="397" y="1" type="line"/>
      <point x="361" y="-45"/>
      <point x="349" y="-74"/>
      <point x="349" y="-105" type="curve" smooth="yes"/>
      <point x="349" y="-159"/>
      <point x="386" y="-197"/>
      <point x="443" y="-197" type="curve" smooth="yes"/>
      <point x="479" y="-197"/>
      <point x="509" y="-181"/>
      <point x="546" y="-148" type="curve"/>
      <point x="535" y="-85" type="line"/>
      <point x="526" y="-85" type="line"/>
      <point x="506" y="-102"/>
      <point x="485" y="-112"/>
      <point x="466" y="-112" type="curve" smooth="yes"/>
      <point x="444" y="-112"/>
      <point x="432" y="-100"/>
      <point x="432" y="-80" type="curve" smooth="yes"/>
      <point x="432" y="-64"/>
      <point x="439" y="-41"/>
      <point x="472" y="1" type="curve"/>
    </contour>
    <component base="a"/>
  </outline>
</glyph>
<glyph name="iogonek" format="1">
  <advance width="289"/>
  <unicode hex="012F"/>
  <outline>
    <contour>
      <point x="65" y="0" type="line"/>
      <point x="35" y="-45"/>
      <point x="26" y="-74"/>
      <point x="26" y="-105" type="curve" smooth="yes"/>
      <point x="26" y="-158"/>
      <point x="62" y="-197"/>
      <point x="121" y="-197" type="curve" smooth="yes"/>
      <point x="154" y="-197"/>
      <point x="187" y="-184"/>
      <point x="222" y="-155" type="curve"/>
      <point x="211" y="-89" type="line"/>
      <point x="202" y="-89" type="line"/>
      <point x="184" y="-105"/>
      <point x="160" y="-113"/>
      <point x="143" y="-113" type="curve" smooth="yes"/>
      <point x="120" y="-113"/>
      <point x="109" y="-100"/>
      <point x="109" y="-80" type="curve" smooth="yes"/>
      <point x="109" y="-61"/>
      <point x="118" y="-36"/>
      <point x="148" y="8" type="curve"/>
    </contour>
    <component base="i"/>
  </outline>
</glyph>
<glyph name="ldot" format="1">
  <advance width="437"/>
  <unicode hex="0140"/>
  <outline>
    <contour>
      <point x="193" y="-89" type="move"/>
    </contour>
    <component base="l"/>
    <component base="periodcentered" xOffset="227" yOffset="66"/>
  </outline>
</glyph>
<glyph name="lslash" format="1">
  <advance width="414"/>
  <unicode hex="0142"/>
  <outline>
    <contour>
      <point x="1" y="250" type="line"/>
      <point x="24" y="168" type="line"/>
      <point x="37" y="160" type="line"/>
      <point x="333" y="288" type="line"/>
      <point x="309" y="370" type="line"/>
      <point x="297" y="377" type="line"/>
    </contour>
    <component base="l" xOffset="14"/>
  </outline>
</glyph>
<glyph name="eng" format="1">
  <advance width="608"/>
  <unicode hex="014B"/>
  <outline>
    <contour>
      <point x="407" y="503" type="line"/>
      <point x="411" y="245" type="line"/>
      <point x="401" y="245" type="line"/>
      <point x="228" y="508" type="line"/>
      <point x="65" y="508" type="line"/>
      <point x="72" y="149" type="line"/>
      <point x="65" y="0" type="line"/>
      <point x="201" y="0" type="line"/>
      <point x="196" y="182" type="line"/>
      <point x="196" y="282" type="line"/>
      <point x="205" y="282" type="line"/>
      <point x="395" y="-6" type="line"/>
      <point x="388" y="-29"/>
      <point x="369" y="-47"/>
      <point x="338" y="-65" type="curve"/>
      <point x="338" y="-77" type="line"/>
      <point x="386" y="-139" type="line"/>
      <point x="503" y="-95"/>
      <point x="540" y="-47"/>
      <point x="540" y="42" type="curve"/>
      <point x="537" y="165" type="line"/>
      <point x="545" y="511" type="line"/>
    </contour>
  </outline>
</glyph>
<glyph name="oe" format="1">
  <advance width="754"/>
  <unicode hex="0153"/>
  <outline>
    <contour>
      <point x="129" y="517"/>
      <point x="27" y="418"/>
      <point x="27" y="246" type="curve" smooth="yes"/>
      <point x="27" y="83"/>
      <point x="119" y="-9"/>
      <point x="282" y="-9" type="curve" smooth="yes"/>
      <point x="348" y="-9"/>
      <point x="413" y="2"/>
      <point x="465" y="0" type="curve"/>
      <point x="725" y="0" type="line"/>
      <point x="735" y="111" type="line"/>
      <point x="726" y="121" type="line"/>
      <point x="590" y="116" type="line"/>
      <point x="505" y="116" type="line"/>
      <point x="503" y="164" type="line"/>
      <point x="503" y="197" type="line"/>
      <point x="582" y="198" type="line"/>
      <point x="679" y="195" type="line"/>
      <point x="688" y="306" type="line"/>
      <point x="680" y="317" type="line"/>
      <point x="592" y="314" type="line"/>
      <point x="507" y="314" type="line"/>
      <point x="509" y="392" type="line"/>
      <point x="599" y="392" type="line"/>
      <point x="730" y="387" type="line"/>
      <point x="740" y="497" type="line"/>
      <point x="731" y="508" type="line"/>
      <point x="465" y="508" type="line" smooth="yes"/>
      <point x="417" y="508"/>
      <point x="365" y="517"/>
      <point x="302" y="517" type="curve" smooth="yes"/>
    </contour>
    <contour>
      <point x="322" y="396"/>
      <point x="343" y="391"/>
      <point x="352" y="383" type="curve" smooth="yes"/>
      <point x="359" y="377"/>
      <point x="361" y="366"/>
      <point x="361" y="345" type="curve" smooth="yes"/>
      <point x="365" y="156" type="line" smooth="yes"/>
      <point x="366" y="135"/>
      <point x="363" y="122"/>
      <point x="354" y="115" type="curve" smooth="yes"/>
      <point x="345" y="108"/>
      <point x="324" y="104"/>
      <point x="293" y="104" type="curve" smooth="yes"/>
      <point x="212" y="104"/>
      <point x="184" y="144"/>
      <point x="184" y="259" type="curve" smooth="yes"/>
      <point x="184" y="363"/>
      <point x="210" y="396"/>
      <point x="289" y="396" type="curve" smooth="yes"/>
    </contour>
    <contour>
      <point x="495" y="508" type="move" name="top"/>
    </contour>
  </outline>
</glyph>
<glyph name="tcedilla" format="1">
  <advance width="451"/>
  <unicode hex="0163"/>
  <outline>
    <contour>
      <point x="194" y="26" type="line"/>
      <point x="173" y="-76" type="line"/>
      <point x="222" y="-104" type="line" smooth="yes"/>
      <point x="231" y="-109"/>
      <point x="236" y="-114"/>
      <point x="236" y="-123" type="curve" smooth="yes"/>
      <point x="236" y="-134"/>
      <point x="229" y="-141"/>
      <point x="215" y="-141" type="curve" smooth="yes"/>
      <point x="198" y="-141"/>
      <point x="176" y="-130"/>
      <point x="157" y="-112" type="curve"/>
      <point x="150" y="-114" type="line"/>
      <point x="140" y="-177" type="line"/>
      <point x="163" y="-193"/>
      <point x="191" y="-204"/>
      <point x="225" y="-204" type="curve" smooth="yes"/>
      <point x="286" y="-204"/>
      <point x="325" y="-171"/>
      <point x="325" y="-126" type="curve" smooth="yes"/>
      <point x="325" y="-102"/>
      <point x="315" y="-83"/>
      <point x="283" y="-65" type="curve" smooth="yes"/>
      <point x="249" y="-46" type="line"/>
      <point x="264" y="26" type="line"/>
    </contour>
    <component base="t" xOffset="-4"/>
  </outline>
</glyph>
<glyph name="Tbar" format="1">
  <advance width="510"/>
  <unicode hex="0166"/>
  <outline>
    <contour>
      <point x="93" y="338" type="line"/>
      <point x="87" y="264" type="line"/>
      <point x="97" y="253" type="line"/>
      <point x="432" y="253" type="line"/>
      <point x="438" y="328" type="line"/>
      <point x="428" y="338" type="line"/>
    </contour>
    <component base="T"/>
  </outline>
</glyph>
<glyph name="Uogonek" format="1">
  <advance width="644"/>
  <unicode hex="0172"/>
  <outline>
    <contour>
      <point x="456" y="77" type="line"/>
      <point x="387" y="-22" type="line" smooth="yes"/>
      <point x="367" y="-51"/>
      <point x="358" y="-79"/>
      <point x="358" y="-105" type="curve" smooth="yes"/>
      <point x="358" y="-157"/>
      <point x="394" y="-197"/>
      <point x="454" y="-197" type="curve" smooth="yes"/>
      <point x="490" y="-197"/>
      <point x="522" y="-181"/>
      <point x="561" y="-149" type="curve"/>
      <point x="549" y="-87" type="line"/>
      <point x="541" y="-87" type="line"/>
      <point x="519" y="-104"/>
      <point x="496" y="-113"/>
      <point x="476" y="-113" type="curve" smooth="yes"/>
      <point x="451" y="-113"/>
      <point x="440" y="-99"/>
      <point x="440" y="-80" type="curve" smooth="yes"/>
      <point x="440" y="-66"/>
      <point x="446" y="-50"/>
      <point x="456" y="-34" type="curve" smooth="yes"/>
      <point x="526" y="77" type="line"/>
    </contour>
    <component base="U"/>
  </outline>
</glyph>
<glyph name="uogonek" format="1">
  <advance width="561"/>
  <unicode hex="0173"/>
  <outline>
    <contour>
      <point x="377" y="72" type="line"/>
      <point x="308" y="-24" type="line" smooth="yes"/>
      <point x="288" y="-52"/>
      <point x="279" y="-80"/>
      <point x="279" y="-107" type="curve" smooth="yes"/>
      <point x="279" y="-159"/>
      <point x="315" y="-198"/>
      <point x="375" y="-198" type="curve" smooth="yes"/>
      <point x="411" y="-198"/>
      <point x="443" y="-183"/>
      <point x="482" y="-150" type="curve"/>
      <point x="470" y="-89" type="line"/>
      <point x="462" y="-89" type="line"/>
      <point x="440" y="-106"/>
      <point x="417" y="-114"/>
      <point x="397" y="-114" type="curve" smooth="yes"/>
      <point x="372" y="-114"/>
      <point x="361" y="-101"/>
      <point x="361" y="-81" type="curve" smooth="yes"/>
      <point x="361" y="-67"/>
      <point x="367" y="-51"/>
      <point x="377" y="-35" type="curve" smooth="yes"/>
      <point x="447" y="72" type="line"/>
    </contour>
    <component base="u"/>
  </outline>
</glyph>
<glyph name="ohorn" format="1">
  <advance width="569"/>
  <unicode hex="01A1"/>
  <outline>
    <contour>
      <point x="443" y="580" type="line"/>
      <point x="459" y="567"/>
      <point x="468" y="549"/>
      <point x="468" y="531" type="curve" smooth="yes"/>
      <point x="468" y="508"/>
      <point x="454" y="495"/>
      <point x="428" y="495" type="curve" smooth="yes"/>
      <point x="394" y="495"/>
      <point x="352" y="517"/>
      <point x="280" y="517" type="curve" smooth="yes"/>
      <point x="128" y="517"/>
      <point x="27" y="418"/>
      <point x="27" y="245" type="curve" smooth="yes"/>
      <point x="27" y="84"/>
      <point x="114" y="-10"/>
      <point x="273" y="-10" type="curve" smooth="yes"/>
      <point x="439" y="-10"/>
      <point x="536" y="94"/>
      <point x="536" y="263" type="curve" smooth="yes"/>
      <point x="536" y="331"/>
      <point x="520" y="385"/>
      <point x="487" y="428" type="curve"/>
      <point x="542" y="441"/>
      <point x="583" y="482"/>
      <point x="583" y="538" type="curve" smooth="yes"/>
      <point x="583" y="585"/>
      <point x="553" y="619"/>
      <point x="516" y="619" type="curve" smooth="yes"/>
      <point x="491" y="619"/>
      <point x="465" y="604"/>
      <point x="446" y="591" type="curve"/>
    </contour>
    <contour>
      <point x="210" y="102"/>
      <point x="184" y="138"/>
      <point x="184" y="257" type="curve" smooth="yes"/>
      <point x="184" y="367"/>
      <point x="207" y="397"/>
      <point x="278" y="397" type="curve" smooth="yes"/>
      <point x="353" y="397"/>
      <point x="379" y="363"/>
      <point x="379" y="243" type="curve" smooth="yes"/>
      <point x="379" y="131"/>
      <point x="355" y="102"/>
      <point x="286" y="102" type="curve" smooth="yes"/>
    </contour>
    <contour>
      <point x="272" y="508" type="move" name="top"/>
    </contour>
  </outline>
</glyph>
<glyph name="oogonek" format="1">
  <advance width="562"/>
  <unicode hex="01EB"/>
  <outline>
    <contour>
      <point x="341" y="74" type="line"/>
      <point x="272" y="-22" type="line" smooth="yes"/>
      <point x="252" y="-51"/>
      <point x="243" y="-79"/>
      <point x="243" y="-105" type="curve" smooth="yes"/>
      <point x="243" y="-157"/>
      <point x="279" y="-197"/>
      <point x="339" y="-197" type="curve" smooth="yes"/>
      <point x="375" y="-197"/>
      <point x="407" y="-181"/>
      <point x="446" y="-149" type="curve"/>
      <point x="434" y="-87" type="line"/>
      <point x="426" y="-87" type="line"/>
      <point x="404" y="-104"/>
      <point x="381" y="-113"/>
      <point x="361" y="-113" type="curve" smooth="yes"/>
      <point x="336" y="-113"/>
      <point x="325" y="-99"/>
      <point x="325" y="-80" type="curve" smooth="yes"/>
      <point x="325" y="-66"/>
      <point x="331" y="-50"/>
      <point x="341" y="-34" type="curve" smooth="yes"/>
      <point x="411" y="74" type="line"/>
    </contour>
    <component base="o"/>
  </outline>
</glyph>
<glyph name="dotbelowcomb" format="1">
  <advance width="236"/>
  <unicode hex="0323"/>
  <outline>
    <component base="period" xOffset="5" yOffset="-202"/>
    <contour>
      <point x="119" y="0" type="move" name="_bottom"/>
    </contour>
  </outline>
</glyph>
<glyph name="Delta" format="1">
  <advance width="611"/>
  <unicode hex="0394"/>
  <outline>
    <contour>
      <point x="214" y="645" type="line"/>
      <point x="6" y="0" type="line"/>
      <point x="598" y="0" type="line"/>
      <point x="409" y="645" type="line"/>
    </contour>
    <contour>
      <point x="409" y="121" type="line"/>
      <point x="188" y="121" type="line"/>
      <point x="303" y="497" type="line"/>
      <point x="313" y="497" type="line"/>
    </contour>
  </outline>
</glyph>
<glyph name="pi" format="1">
  <advance width="693"/>
  <unicode hex="03C0"/>
  <outline>
    <contour>
      <point x="526" y="508" type="line"/>
      <point x="109" y="508" type="line"/>
      <point x="91" y="499" type="line"/>
      <point x="-6" y="375" type="line"/>
      <point x="-6" y="359" type="line"/>
      <point x="41" y="299" type="line"/>
      <point x="57" y="299" type="line"/>
      <point x="93" y="338"/>
      <point x="122" y="382"/>
      <point x="153" y="382" type="curve" smooth="yes"/>
      <point x="420" y="382" type="line"/>
      <point x="420" y="113" type="line" smooth="yes"/>
      <point x="420" y="21"/>
      <point x="471" y="-8"/>
      <point x="527" y="-8" type="curve" smooth="yes"/>
      <point x="548" y="-8"/>
      <point x="574" y="1"/>
      <point x="605" y="18" type="curve"/>
      <point x="622" y="102" type="line"/>
      <point x="611" y="111" type="line"/>
      <point x="600" y="107"/>
      <point x="589" y="104"/>
      <point x="581" y="104" type="curve" smooth="yes"/>
      <point x="567" y="104"/>
      <point x="561" y="114"/>
      <point x="561" y="136" type="curve" smooth="yes"/>
      <point x="566" y="381" type="line"/>
      <point x="642" y="380" type="line"/>
      <point x="652" y="498" type="line"/>
      <point x="643" y="510" type="line"/>
    </contour>
    <contour>
      <point x="157" y="465" type="line"/>
      <point x="163" y="191" type="line"/>
      <point x="158" y="-88" type="line"/>
      <point x="312" y="-88" type="line"/>
      <point x="307" y="207" type="line"/>
      <point x="307" y="476" type="line"/>
    </contour>
  </outline>
</glyph>
<glyph name="quoteright" format="1">
  <advance width="226"/>
  <unicode hex="2019"/>
  <outline>
    <contour>
      <point x="99" y="639"/>
      <point x="65" y="617"/>
      <point x="35" y="594" type="curve"/>
      <point x="35" y="582" type="line"/>
      <point x="66" y="562"/>
      <point x="76" y="538"/>
      <point x="76" y="504" type="curve" smooth="yes"/>
      <point x="76" y="476"/>
      <point x="63" y="447"/>
      <point x="36" y="417" type="curve"/>
      <point x="38" y="407" type="line"/>
      <point x="92" y="372" type="line"/>
      <point x="161" y="436"/>
      <point x="193" y="493"/>
      <point x="193" y="551" type="curve" smooth="yes"/>
      <point x="193" y="598"/>
      <point x="176" y="630"/>
      <point x="135" y="654" type="curve"/>
    </contour>
  </outline>
</glyph>
<glyph name="dagger" format="1">
  <advance width="511"/>
  <unicode hex="2020"/>
  <outline>
    <contour>
      <point x="200" y="584" type="line"/>
      <point x="199" y="280" type="line"/>
      <point x="199" y="-83" type="line"/>
      <point x="209" y="-94" type="line"/>
      <point x="306" y="-87" type="line"/>
      <point x="306" y="290" type="line"/>
      <point x="309" y="583" type="line"/>
      <point x="300" y="592" type="line"/>
    </contour>
    <contour>
      <point x="47" y="416" type="line"/>
      <point x="39" y="322" type="line"/>
      <point x="49" y="311" type="line"/>
      <point x="466" y="311" type="line"/>
      <point x="473" y="405" type="line"/>
      <point x="463" y="416" type="line"/>
    </contour>
  </outline>
</glyph>
<glyph name="fraction" format="1">
  <advance width="118"/>
  <unicode hex="2044"/>
  <outline>
    <contour>
      <point x="-227" y="-37" type="line"/>
      <point x="-221" y="-52" type="line"/>
      <point x="-154" y="-93" type="line"/>
      <point x="311" y="630" type="line"/>
      <point x="302" y="650" type="line"/>
      <point x="239" y="689" type="line"/>
    </contour>
  </outline>
</glyph>
<glyph name="Euro" format="1">
  <advance width="459"/>
  <unicode hex="20AC"/>
  <outline>
    <contour>
      <point x="180" y="516"/>
      <point x="91" y="441"/>
      <point x="69" y="310" type="curve"/>
      <point x="224" y="310" type="line"/>
      <point x="233" y="369"/>
      <point x="264" y="395"/>
      <point x="318" y="395" type="curve" smooth="yes"/>
      <point x="349" y="395"/>
      <point x="389" y="385"/>
      <point x="417" y="370" type="curve"/>
      <point x="427" y="376" type="line"/>
      <point x="451" y="493" type="line"/>
      <point x="414" y="507"/>
      <point x="370" y="516"/>
      <point x="324" y="516" type="curve" smooth="yes"/>
    </contour>
    <contour>
      <point x="66" y="193" type="line"/>
      <point x="82" y="62"/>
      <point x="164" y="-8"/>
      <point x="315" y="-8" type="curve" smooth="yes"/>
      <point x="350" y="-8"/>
      <point x="389" y="-4"/>
      <point x="427" y="9" type="curve"/>
      <point x="438" y="125" type="line"/>
      <point x="426" y="133" type="line"/>
      <point x="397" y="121"/>
      <point x="353" y="112"/>
      <point x="324" y="112" type="curve" smooth="yes"/>
      <point x="271" y="112"/>
      <point x="238" y="138"/>
      <point x="226" y="193" type="curve"/>
    </contour>
    <contour>
      <point x="7" y="343" type="line"/>
      <point x="2" y="278" type="line"/>
      <point x="7" y="270" type="line"/>
      <point x="358" y="270" type="line"/>
      <point x="363" y="336" type="line"/>
      <point x="356" y="343" type="line"/>
    </contour>
    <contour>
      <point x="7" y="235" type="line"/>
      <point x="2" y="169" type="line"/>
      <point x="7" y="162" type="line"/>
      <point x="358" y="162" type="line"/>
      <point x="363" y="227" type="line" smooth="yes"/>
      <point x="356" y="235" type="line"/>
    </contour>
  </outline>
</glyph>
<glyph name="trademark" format="1">
  <advance width="593"/>
  <unicode hex="2122"/>
  <outline>
    <contour>
      <point x="438" y="643" type="line"/>
      <point x="428" y="606" type="line"/>
      <point x="402" y="528" type="line"/>
      <point x="397" y="528" type="line"/>
      <point x="374" y="609" type="line"/>
      <point x="366" y="643" type="line"/>
      <point x="275" y="643" type="line"/>
      <point x="250" y="404" type="line"/>
      <point x="316" y="404" type="line"/>
      <point x="320" y="484" type="line"/>
      <point x="326" y="531" type="line"/>
      <point x="330" y="531" type="line"/>
      <point x="366" y="426" type="line"/>
      <point x="425" y="426" type="line"/>
      <point x="467" y="531" type="line"/>
      <point x="472" y="531" type="line"/>
      <point x="476" y="477" type="line"/>
      <point x="479" y="404" type="line"/>
      <point x="548" y="404" type="line"/>
      <point x="527" y="643" type="line"/>
    </contour>
    <contour>
      <point x="86" y="636" type="line"/>
      <point x="88" y="474" type="line"/>
      <point x="84" y="404" type="line"/>
      <point x="161" y="404" type="line"/>
      <point x="158" y="482" type="line"/>
      <point x="161" y="636" type="line"/>
    </contour>
    <contour>
      <point x="26" y="643" type="line"/>
      <point x="22" y="587" type="line"/>
      <point x="27" y="581" type="line"/>
      <point x="80" y="584" type="line"/>
      <point x="167" y="584" type="line"/>
      <point x="219" y="581" type="line"/>
      <point x="223" y="638" type="line"/>
      <point x="219" y="643" type="line"/>
    </contour>
  </outline>
</glyph>
<glyph name="arrowdown" format="1">
  <advance width="539"/>
  <unicode hex="2193"/>
  <outline>
    <contour>
      <point x="448" y="276" type="line"/>
      <point x="270" y="107" type="line"/>
      <point x="91" y="276" type="line"/>
      <point x="71" y="276" type="line"/>
      <point x="52" y="189" type="line"/>
      <point x="258" y="-9" type="line"/>
      <point x="282" y="-9" type="line"/>
      <point x="487" y="189" type="line"/>
      <point x="468" y="276" type="line"/>
    </contour>
    <contour>
      <point x="215" y="468" type="line"/>
      <point x="224" y="79" type="line"/>
      <point x="316" y="79" type="line"/>
      <point x="325" y="472" type="line"/>
      <point x="226" y="478" type="line"/>
    </contour>
  </outline>
</glyph>
<glyph name="radical" format="1">
  <advance width="499"/>
  <unicode hex="221A"/>
  <outline>
    <contour>
      <point x="445" y="710" type="line"/>
      <point x="433" y="700" type="line"/>
      <point x="261" y="136" type="line"/>
      <point x="252" y="136" type="line"/>
      <point x="176" y="461" type="line"/>
      <point x="170" y="468" type="line"/>
      <point x="-28" y="468" type="line"/>
      <point x="-32" y="366" type="line"/>
      <point x="-27" y="360" type="line"/>
      <point x="66" y="360" type="line"/>
      <point x="157" y="0" type="line"/>
      <point x="327" y="0" type="line"/>
      <point x="551" y="710" type="line"/>
    </contour>
  </outline>
</glyph>
<glyph name="notequal" format="1">
  <advance width="480"/>
  <unicode hex="2260"/>
  <outline>
    <contour>
      <point x="247" y="549" type="line"/>
      <point x="113" y="-23" type="line"/>
      <point x="121" y="-35" type="line"/>
      <point x="220" y="-35" type="line"/>
      <point x="353" y="538" type="line"/>
      <point x="343" y="549" type="line"/>
    </contour>
    <component base="equal"/>
  </outline>
</glyph>
<glyph name="a.sups" format="1">
  <advance width="350"/>
  <outline>
    <contour>
      <point x="134" y="653"/>
      <point x="83" y="640"/>
      <point x="41" y="618" type="curve"/>
      <point x="54" y="542" type="line"/>
      <point x="62" y="538" type="line"/>
      <point x="104" y="562"/>
      <point x="134" y="572"/>
      <point x="161" y="572" type="curve" smooth="yes"/>
      <point x="186" y="572"/>
      <point x="197" y="561"/>
      <point x="197" y="536" type="curve" smooth="yes"/>
      <point x="196" y="521" type="line"/>
      <point x="97" y="507" type="line" smooth="yes"/>
      <point x="46" y="499"/>
      <point x="21" y="470"/>
      <point x="21" y="422" type="curve" smooth="yes"/>
      <point x="21" y="359"/>
      <point x="64" y="321"/>
      <point x="131" y="320" type="curve"/>
      <point x="157" y="329"/>
      <point x="182" y="346"/>
      <point x="202" y="369" type="curve"/>
      <point x="206" y="369" type="line"/>
      <point x="217" y="334"/>
      <point x="232" y="321"/>
      <point x="268" y="321" type="curve" smooth="yes"/>
      <point x="289" y="321"/>
      <point x="304" y="326"/>
      <point x="322" y="340" type="curve"/>
      <point x="333" y="401" type="line"/>
      <point x="325" y="408" type="line"/>
      <point x="321" y="405"/>
      <point x="316" y="405"/>
      <point x="311" y="405" type="curve" smooth="yes"/>
      <point x="303" y="405"/>
      <point x="300" y="411"/>
      <point x="300" y="424" type="curve" smooth="yes"/>
      <point x="300" y="441"/>
      <point x="305" y="537"/>
      <point x="305" y="558" type="curve" smooth="yes"/>
      <point x="305" y="619"/>
      <point x="261" y="653"/>
      <point x="180" y="653" type="curve" smooth="yes"/>
    </contour>
    <contour>
      <point x="196" y="418" type="line"/>
      <point x="183" y="407"/>
      <point x="169" y="401"/>
      <point x="157" y="401" type="curve" smooth="yes"/>
      <point x="138" y="401"/>
      <point x="127" y="413"/>
      <point x="127" y="433" type="curve" smooth="yes"/>
      <point x="127" y="450"/>
      <point x="135" y="457"/>
      <point x="149" y="460" type="curve" smooth="yes"/>
      <point x="196" y="468" type="line"/>
    </contour>
    <contour>
      <point x="332" y="7" type="move" name="ogonek"/>
    </contour>
    <contour>
      <point x="178" y="318" type="move" name="top"/>
    </contour>
  </outline>
</glyph>
<glyph name="b.sups" format="1">
  <advance width="371"/>
  <outline>
    <contour>
      <point x="199" y="641"/>
      <point x="175" y="623"/>
      <point x="155" y="599" type="curve"/>
      <point x="138" y="599" type="line"/>
      <point x="139" y="535" type="line"/>
      <point x="156" y="549"/>
      <point x="171" y="557"/>
      <point x="188" y="557" type="curve" smooth="yes"/>
      <point x="225" y="557"/>
      <point x="241" y="530"/>
      <point x="241" y="479" type="curve" smooth="yes"/>
      <point x="241" y="415"/>
      <point x="218" y="393"/>
      <point x="180" y="393" type="curve" smooth="yes"/>
      <point x="151" y="393"/>
      <point x="105" y="413"/>
      <point x="60" y="455" type="curve"/>
      <point x="59" y="351" type="line"/>
      <point x="102" y="331"/>
      <point x="147" y="319"/>
      <point x="188" y="319" type="curve"/>
      <point x="287" y="319"/>
      <point x="352" y="380"/>
      <point x="352" y="494" type="curve" smooth="yes"/>
      <point x="352" y="592"/>
      <point x="305" y="649"/>
      <point x="225" y="649" type="curve"/>
    </contour>
    <contour>
      <point x="39" y="795" type="line"/>
      <point x="43" y="456" type="line"/>
      <point x="38" y="331" type="line"/>
      <point x="48" y="320" type="line"/>
      <point x="151" y="352" type="line"/>
      <point x="150" y="471" type="line"/>
      <point x="156" y="803" type="line"/>
    </contour>
  </outline>
</glyph>
<glyph name="brevetilde" format="1">
  <advance width="388"/>
  <outline>
    <component base="breve.cap" xOffset="14" yOffset="10" xScale="0.95" yScale="0.95"/>
    <component base="tilde" xOffset="20" yOffset="204" xScale="0.92" yScale="0.93"/>
    <contour>
      <point x="194" y="468" type="move" name="_top"/>
    </contour>
  </outline>
</glyph>
<glyph name="c.sups" format="1">
  <advance width="268"/>
  <outline>
    <contour>
      <point x="78" y="653"/>
      <point x="19" y="590"/>
      <point x="19" y="481" type="curve" smooth="yes"/>
      <point x="19" y="379"/>
      <point x="70" y="319"/>
      <point x="159" y="319" type="curve" smooth="yes"/>
      <point x="190" y="319"/>
      <point x="219" y="323"/>
      <point x="246" y="331" type="curve"/>
      <point x="258" y="417" type="line"/>
      <point x="249" y="424" type="line"/>
      <point x="225" y="416"/>
      <point x="206" y="412"/>
      <point x="188" y="412" type="curve" smooth="yes"/>
      <point x="150" y="412"/>
      <point x="131" y="438"/>
      <point x="131" y="494" type="curve" smooth="yes"/>
      <point x="131" y="537"/>
      <point x="148" y="558"/>
      <point x="180" y="558" type="curve" smooth="yes"/>
      <point x="198" y="558"/>
      <point x="215" y="551"/>
      <point x="236" y="541" type="curve"/>
      <point x="244" y="546" type="line"/>
      <point x="264" y="635" type="line"/>
      <point x="241" y="646"/>
      <point x="211" y="653"/>
      <point x="180" y="653" type="curve" smooth="yes"/>
    </contour>
    <contour>
      <point x="160" y="0" type="move" name="bottom"/>
    </contour>
    <contour>
      <point x="176" y="319" type="move" name="top"/>
    </contour>
  </outline>
</glyph>
<glyph name="caron.cap" format="1">
  <advance width="388"/>
  <outline>
    <contour>
      <point x="307" y="711" type="line"/>
      <point x="269" y="690"/>
      <point x="231" y="670"/>
      <point x="194" y="649" type="curve"/>
      <point x="156" y="670"/>
      <point x="118" y="690"/>
      <point x="80" y="711" type="curve"/>
      <point x="65" y="711" type="line"/>
      <point x="37" y="648" type="line"/>
      <point x="89" y="613"/>
      <point x="136" y="576"/>
      <point x="179" y="538" type="curve"/>
      <point x="209" y="538" type="line"/>
      <point x="251" y="576"/>
      <point x="298" y="613"/>
      <point x="350" y="648" type="curve"/>
      <point x="322" y="711" type="line"/>
    </contour>
    <contour>
      <point x="193" y="468" type="move" name="_top"/>
    </contour>
  </outline>
</glyph>
<glyph name="dieresis.i" format="1">
  <advance width="388"/>
  <outline>
    <component base="dotaccent" xOffset="-5" yOffset="63" xScale="0.90" yScale="0.90"/>
    <component base="dotaccent" xOffset="160" yOffset="63" xScale="0.90" yScale="0.90"/>
    <contour>
      <point x="194" y="468" type="move" name="_top"/>
    </contour>
  </outline>
</glyph>
<glyph name="dieresisacute" format="1">
  <advance width="388"/>
  <outline>
    <contour>
      <point x="242" y="675"/>
      <point x="214" y="646"/>
      <point x="214" y="600" type="curve" smooth="yes"/>
      <point x="214" y="556"/>
      <point x="239" y="531"/>
      <point x="283" y="531" type="curve" smooth="yes"/>
      <point x="328" y="531"/>
      <point x="356" y="560"/>
      <point x="356" y="606" type="curve" smooth="yes"/>
      <point x="356" y="650"/>
      <point x="331" y="675"/>
      <point x="288" y="675" type="curve" smooth="yes"/>
    </contour>
    <contour>
      <point x="60" y="675"/>
      <point x="32" y="646"/>
      <point x="32" y="600" type="curve" smooth="yes"/>
      <point x="32" y="556"/>
      <point x="57" y="531"/>
      <point x="101" y="531" type="curve" smooth="yes"/>
      <point x="146" y="531"/>
      <point x="174" y="560"/>
      <point x="174" y="606" type="curve" smooth="yes"/>
      <point x="174" y="650"/>
      <point x="149" y="675"/>
      <point x="106" y="675" type="curve" smooth="yes"/>
    </contour>
    <contour>
      <point x="212" y="843"/>
      <point x="138" y="818"/>
      <point x="56" y="794" type="curve"/>
      <point x="69" y="725" type="line"/>
      <point x="83" y="719" type="line"/>
      <point x="159" y="727"/>
      <point x="233" y="738"/>
      <point x="317" y="752" type="curve"/>
      <point x="324" y="765" type="line"/>
      <point x="301" y="865" type="line"/>
      <point x="288" y="871" type="line"/>
    </contour>
    <contour>
      <point x="194" y="468" type="move" name="_top"/>
    </contour>
  </outline>
</glyph>
<glyph name="dieresiscaron" format="1">
  <advance width="388"/>
  <outline>
    <contour>
      <point x="242" y="675"/>
      <point x="214" y="646"/>
      <point x="214" y="600" type="curve" smooth="yes"/>
      <point x="214" y="556"/>
      <point x="239" y="531"/>
      <point x="283" y="531" type="curve" smooth="yes"/>
      <point x="328" y="531"/>
      <point x="356" y="560"/>
      <point x="356" y="606" type="curve" smooth="yes"/>
      <point x="356" y="650"/>
      <point x="331" y="675"/>
      <point x="288" y="675" type="curve" smooth="yes"/>
    </contour>
    <contour>
      <point x="60" y="675"/>
      <point x="32" y="646"/>
      <point x="32" y="600" type="curve" smooth="yes"/>
      <point x="32" y="556"/>
      <point x="57" y="531"/>
      <point x="101" y="531" type="curve" smooth="yes"/>
      <point x="146" y="531"/>
      <point x="174" y="560"/>
      <point x="174" y="606" type="curve" smooth="yes"/>
      <point x="174" y="650"/>
      <point x="149" y="675"/>
      <point x="106" y="675" type="curve" smooth="yes"/>
    </contour>
    <contour>
      <point x="307" y="857" type="line"/>
      <point x="269" y="837"/>
      <point x="231" y="816"/>
      <point x="194" y="795" type="curve"/>
      <point x="156" y="816"/>
      <point x="118" y="837"/>
      <point x="80" y="857" type="curve"/>
      <point x="65" y="857" type="line"/>
      <point x="37" y="795" type="line"/>
      <point x="89" y="759"/>
      <point x="136" y="722"/>
      <point x="179" y="685" type="curve"/>
      <point x="209" y="685" type="line"/>
      <point x="251" y="722"/>
      <point x="298" y="759"/>
      <point x="350" y="795" type="curve"/>
      <point x="322" y="857" type="line"/>
    </contour>
    <contour>
      <point x="194" y="468" type="move" name="_top"/>
    </contour>
  </outline>
</glyph>
<glyph name="f.sups" format="1">
  <advance width="223"/>
  <outline>
    <contour>
      <point x="128" y="805"/>
      <point x="69" y="756"/>
      <point x="69" y="666" type="curve"/>
      <point x="72" y="456" type="line"/>
      <point x="67" y="327" type="line"/>
      <point x="184" y="327" type="line"/>
      <point x="180" y="468" type="line"/>
      <point x="182" y="687" type="line"/>
      <point x="182" y="713"/>
      <point x="197" y="723"/>
      <point x="217" y="723" type="curve" smooth="yes"/>
      <point x="232" y="723"/>
      <point x="251" y="718"/>
      <point x="278" y="707" type="curve"/>
      <point x="286" y="713" type="line"/>
      <point x="292" y="799" type="line"/>
      <point x="271" y="803"/>
      <point x="251" y="805"/>
      <point x="230" y="805" type="curve" smooth="yes"/>
    </contour>
    <contour>
      <point x="24" y="642" type="line"/>
      <point x="19" y="580" type="line"/>
      <point x="23" y="574" type="line"/>
      <point x="254" y="574" type="line"/>
      <point x="259" y="636" type="line"/>
      <point x="257" y="642" type="line"/>
    </contour>
  </outline>
</glyph>
<glyph name="five.tf" format="1">
  <advance width="475"/>
  <outline>
    <contour>
      <point x="315" y="586" type="line"/>
      <point x="153" y="586" type="line"/>
      <point x="90" y="589" type="line"/>
      <point x="73" y="572" type="line"/>
      <point x="73" y="279" type="line"/>
      <point x="82" y="267" type="line"/>
      <point x="187" y="249" type="line" smooth="yes"/>
      <point x="251" y="238"/>
      <point x="278" y="219"/>
      <point x="278" y="184" type="curve" smooth="yes"/>
      <point x="278" y="137"/>
      <point x="233" y="110"/>
      <point x="157" y="110" type="curve" smooth="yes"/>
      <point x="118" y="110"/>
      <point x="79" y="116"/>
      <point x="37" y="127" type="curve"/>
      <point x="26" y="116" type="line"/>
      <point x="36" y="2" type="line"/>
      <point x="72" y="-5"/>
      <point x="121" y="-10"/>
      <point x="157" y="-10" type="curve" smooth="yes"/>
      <point x="320" y="-10"/>
      <point x="429" y="73"/>
      <point x="429" y="199" type="curve" smooth="yes"/>
      <point x="429" y="287"/>
      <point x="374" y="337"/>
      <point x="258" y="362" type="curve" smooth="yes"/>
      <point x="193" y="375" type="line"/>
      <point x="196" y="463" type="line"/>
      <point x="309" y="463" type="line"/>
      <point x="407" y="451" type="line"/>
      <point x="418" y="462" type="line"/>
      <point x="433" y="583" type="line"/>
      <point x="423" y="593" type="line"/>
    </contour>
  </outline>
</glyph>
<glyph name="four.dnom" format="1">
  <advance width="374"/>
  <outline>
    <contour>
      <point x="182" y="389" type="line"/>
      <point x="17" y="162" type="line"/>
      <point x="17" y="88" type="line"/>
      <point x="25" y="78" type="line"/>
      <point x="98" y="81" type="line"/>
      <point x="257" y="81" type="line"/>
      <point x="345" y="78" type="line"/>
      <point x="351" y="160" type="line"/>
      <point x="344" y="170" type="line"/>
      <point x="122" y="170" type="line"/>
      <point x="187" y="260" type="line"/>
      <point x="194" y="260" type="line"/>
      <point x="195" y="148" type="line"/>
      <point x="190" y="2" type="line"/>
      <point x="197" y="-5" type="line"/>
      <point x="294" y="0" type="line"/>
      <point x="300" y="8" type="line"/>
      <point x="293" y="125" type="line"/>
      <point x="296" y="389" type="line"/>
    </contour>
  </outline>
</glyph>
<glyph name="hookabove" format="1">
  <advance width="388"/>
  <outline>
    <contour>
      <point x="143" y="754"/>
      <point x="101" y="733"/>
      <point x="70" y="699" type="curve"/>
      <point x="95" y="659" type="line"/>
      <point x="115" y="675"/>
      <point x="141" y="684"/>
      <point x="161" y="684" type="curve" smooth="yes"/>
      <point x="178" y="684"/>
      <point x="190" y="677"/>
      <point x="190" y="661" type="curve" smooth="yes"/>
      <point x="190" y="641"/>
      <point x="171" y="612"/>
      <point x="137" y="588" type="curve"/>
      <point x="184" y="516" type="line"/>
      <point x="239" y="549" type="line"/>
      <point x="214" y="589" type="line"/>
      <point x="258" y="627"/>
      <point x="272" y="648"/>
      <point x="272" y="676" type="curve" smooth="yes"/>
      <point x="272" y="722"/>
      <point x="234" y="754"/>
      <point x="184" y="754" type="curve" smooth="yes"/>
    </contour>
    <contour>
      <point x="195" y="468" type="move" name="_top"/>
    </contour>
  </outline>
</glyph>
<glyph name="j.sups" format="1">
  <advance width="217"/>
  <outline>
    <contour>
      <point x="67" y="813"/>
      <point x="42" y="788"/>
      <point x="42" y="750" type="curve" smooth="yes"/>
      <point x="42" y="712"/>
      <point x="63" y="691"/>
      <point x="100" y="691" type="curve" smooth="yes"/>
      <point x="138" y="691"/>
      <point x="162" y="715"/>
      <point x="162" y="754" type="curve" smooth="yes"/>
      <point x="162" y="791"/>
      <point x="141" y="813"/>
      <point x="104" y="813" type="curve" smooth="yes"/>
    </contour>
    <contour>
      <point x="57" y="642" type="line"/>
      <point x="11" y="642" type="line"/>
      <point x="5" y="561" type="line"/>
      <point x="11" y="553" type="line"/>
      <point x="55" y="555" type="line"/>
      <point x="56" y="457" type="line"/>
      <point x="56" y="346" type="line" smooth="yes"/>
      <point x="56" y="302"/>
      <point x="42" y="275"/>
      <point x="11" y="256" type="curve"/>
      <point x="11" y="246" type="line"/>
      <point x="50" y="194" type="line"/>
      <point x="131" y="229"/>
      <point x="168" y="277"/>
      <point x="168" y="349" type="curve"/>
      <point x="163" y="468" type="line"/>
      <point x="169" y="645" type="line"/>
      <point x="166" y="648" type="line"/>
    </contour>
  </outline>
</glyph>
<glyph name="left" format="1">
  <advance width="425"/>
  <outline>
    <contour>
      <point x="38" y="232" type="line"/>
      <point x="340" y="81" type="line"/>
      <point x="340" y="384" type="line"/>
    </contour>
  </outline>
</glyph>
<glyph name="m.sups" format="1">
  <advance width="569"/>
  <outline>
    <contour>
      <point x="394" y="641"/>
      <point x="364" y="622"/>
      <point x="339" y="598" type="curve"/>
      <point x="324" y="598" type="line"/>
      <point x="325" y="532" type="line"/>
      <point x="347" y="549"/>
      <point x="366" y="558"/>
      <point x="384" y="558" type="curve" smooth="yes"/>
      <point x="409" y="558"/>
      <point x="423" y="542"/>
      <point x="423" y="512" type="curve"/>
      <point x="417" y="327" type="line"/>
      <point x="533" y="327" type="line"/>
      <point x="530" y="468" type="line"/>
      <point x="532" y="560" type="line" smooth="yes"/>
      <point x="533" y="617"/>
      <point x="496" y="648"/>
      <point x="429" y="648" type="curve"/>
    </contour>
    <contour>
      <point x="40" y="639" type="line"/>
      <point x="43" y="457" type="line"/>
      <point x="38" y="327" type="line"/>
      <point x="154" y="327" type="line"/>
      <point x="150" y="468" type="line"/>
      <point x="150" y="647" type="line"/>
    </contour>
    <contour>
      <point x="205" y="394" type="move"/>
    </contour>
    <contour>
      <point x="206" y="641"/>
      <point x="179" y="622"/>
      <point x="154" y="599" type="curve"/>
      <point x="136" y="599" type="line"/>
      <point x="136" y="532" type="line"/>
      <point x="158" y="549"/>
      <point x="175" y="558"/>
      <point x="194" y="558" type="curve" smooth="yes"/>
      <point x="220" y="558"/>
      <point x="233" y="542"/>
      <point x="233" y="512" type="curve"/>
      <point x="228" y="327" type="line"/>
      <point x="344" y="327" type="line"/>
      <point x="339" y="468" type="line"/>
      <point x="342" y="560" type="line" smooth="yes"/>
      <point x="343" y="617"/>
      <point x="307" y="648"/>
      <point x="239" y="648" type="curve"/>
    </contour>
  </outline>
</glyph>
<glyph name="q.sups" format="1">
  <advance width="366"/>
  <outline>
    <contour>
      <point x="239" y="645"/>
      <point x="210" y="652"/>
      <point x="181" y="652" type="curve" smooth="yes"/>
      <point x="86" y="652"/>
      <point x="19" y="594"/>
      <point x="19" y="481" type="curve" smooth="yes"/>
      <point x="19" y="384"/>
      <point x="69" y="321"/>
      <point x="155" y="321" type="curve"/>
      <point x="178" y="328"/>
      <point x="196" y="343"/>
      <point x="214" y="360" type="curve"/>
      <point x="219" y="360" type="line"/>
      <point x="219" y="345" type="line"/>
      <point x="214" y="202" type="line"/>
      <point x="329" y="202" type="line"/>
      <point x="326" y="467" type="line"/>
      <point x="330" y="647" type="line"/>
      <point x="322" y="653" type="line"/>
      <point x="267" y="636" type="line"/>
    </contour>
    <contour>
      <point x="194" y="572"/>
      <point x="207" y="571"/>
      <point x="219" y="566" type="curve"/>
      <point x="219" y="428" type="line"/>
      <point x="205" y="415"/>
      <point x="191" y="409"/>
      <point x="176" y="409" type="curve" smooth="yes"/>
      <point x="145" y="409"/>
      <point x="129" y="435"/>
      <point x="129" y="496" type="curve" smooth="yes"/>
      <point x="129" y="554"/>
      <point x="145" y="572"/>
      <point x="182" y="572" type="curve" smooth="yes"/>
    </contour>
  </outline>
</glyph>
<glyph name="seven.dnom" format="1">
  <advance width="316"/>
  <outline>
    <contour>
      <point x="13" y="294" type="line"/>
      <point x="19" y="285" type="line"/>
      <point x="91" y="292" type="line"/>
      <point x="174" y="292" type="line"/>
      <point x="47" y="36" type="line"/>
      <point x="55" y="18" type="line"/>
      <point x="154" y="-8" type="line"/>
      <point x="200" y="107" type="line"/>
      <point x="295" y="304" type="line"/>
      <point x="294" y="390" type="line"/>
      <point x="257" y="389" type="line"/>
      <point x="112" y="389" type="line"/>
      <point x="21" y="391" type="line"/>
    </contour>
  </outline>
</glyph>
<glyph name="seven.tosf" format="1">
  <advance width="475"/>
  <outline>
    <contour>
      <point x="21" y="381" type="line"/>
      <point x="29" y="368" type="line"/>
      <point x="132" y="378" type="line"/>
      <point x="288" y="378" type="line"/>
      <point x="77" y="-39" type="line"/>
      <point x="86" y="-64" type="line"/>
      <point x="214" y="-99" type="line"/>
      <point x="278" y="66" type="line"/>
      <point x="442" y="395" type="line"/>
      <point x="442" y="511" type="line"/>
      <point x="387" y="509" type="line"/>
      <point x="157" y="509" type="line"/>
      <point x="31" y="513" type="line"/>
    </contour>
  </outline>
</glyph>
<glyph name="six.lf" format="1">
  <advance width="486"/>
  <outline>
    <contour>
      <point x="314" y="597" type="line"/>
      <point x="132" y="513"/>
      <point x="26" y="377"/>
      <point x="26" y="217" type="curve" smooth="yes"/>
      <point x="26" y="76"/>
      <point x="104" y="-11"/>
      <point x="240" y="-11" type="curve" smooth="yes"/>
      <point x="388" y="-11"/>
      <point x="460" y="88"/>
      <point x="460" y="190" type="curve" smooth="yes"/>
      <point x="460" y="284"/>
      <point x="400" y="367"/>
      <point x="291" y="367" type="curve" smooth="yes"/>
      <point x="260" y="367"/>
      <point x="230" y="359"/>
      <point x="204" y="347" type="curve"/>
      <point x="176" y="379" type="line"/>
      <point x="155" y="227" type="line"/>
      <point x="185" y="246"/>
      <point x="215" y="257"/>
      <point x="243" y="257" type="curve" smooth="yes"/>
      <point x="293" y="257"/>
      <point x="317" y="228"/>
      <point x="317" y="173" type="curve" smooth="yes"/>
      <point x="317" y="120"/>
      <point x="291" y="92"/>
      <point x="245" y="92" type="curve" smooth="yes"/>
      <point x="185" y="92"/>
      <point x="170" y="137"/>
      <point x="170" y="219" type="curve" smooth="yes"/>
      <point x="170" y="373"/>
      <point x="230" y="436"/>
      <point x="427" y="511" type="curve"/>
      <point x="427" y="527" type="line"/>
      <point x="322" y="597" type="line"/>
    </contour>
  </outline>
</glyph>
<glyph name="t.sups" format="1">
  <advance width="242"/>
  <outline>
    <contour>
      <point x="49" y="707" type="line"/>
      <point x="49" y="482" type="line"/>
      <point x="48" y="411" type="line" smooth="yes"/>
      <point x="46" y="358"/>
      <point x="85" y="323"/>
      <point x="155" y="323" type="curve"/>
      <point x="177" y="327"/>
      <point x="203" y="337"/>
      <point x="224" y="347" type="curve"/>
      <point x="234" y="410" type="line"/>
      <point x="226" y="420" type="line"/>
      <point x="214" y="416"/>
      <point x="202" y="413"/>
      <point x="192" y="413" type="curve" smooth="yes"/>
      <point x="167" y="413"/>
      <point x="157" y="427"/>
      <point x="157" y="457" type="curve"/>
      <point x="166" y="724" type="line"/>
      <point x="158" y="731" type="line"/>
    </contour>
    <contour>
      <point x="9" y="642" type="line"/>
      <point x="4" y="580" type="line"/>
      <point x="8" y="574" type="line"/>
      <point x="230" y="574" type="line"/>
      <point x="235" y="636" type="line"/>
      <point x="233" y="642" type="line"/>
    </contour>
    <contour>
      <point x="132" y="0" type="move" name="bottom"/>
    </contour>
    <contour>
      <point x="128" y="160" type="move" name="center"/>
    </contour>
  </outline>
</glyph>
<glyph name="three.lf" format="1">
  <advance width="445"/>
  <outline>
    <contour>
      <point x="145" y="597"/>
      <point x="78" y="578"/>
      <point x="20" y="540" type="curve"/>
      <point x="44" y="428" type="line"/>
      <point x="61" y="428" type="line"/>
      <point x="103" y="453"/>
      <point x="139" y="468"/>
      <point x="175" y="468" type="curve" smooth="yes"/>
      <point x="214" y="468"/>
      <point x="234" y="453"/>
      <point x="234" y="422" type="curve" smooth="yes"/>
      <point x="234" y="380"/>
      <point x="193" y="354"/>
      <point x="148" y="353" type="curve" smooth="yes"/>
      <point x="104" y="351" type="line"/>
      <point x="101" y="242" type="line"/>
      <point x="109" y="232" type="line"/>
      <point x="185" y="232" type="line"/>
      <point x="233" y="231"/>
      <point x="257" y="213"/>
      <point x="257" y="178" type="curve" smooth="yes"/>
      <point x="257" y="135"/>
      <point x="220" y="111"/>
      <point x="153" y="111" type="curve" smooth="yes"/>
      <point x="116" y="111"/>
      <point x="79" y="118"/>
      <point x="38" y="131" type="curve"/>
      <point x="27" y="121" type="line"/>
      <point x="37" y="1" type="line"/>
      <point x="71" y="-5"/>
      <point x="113" y="-9"/>
      <point x="149" y="-9" type="curve" smooth="yes"/>
      <point x="305" y="-9"/>
      <point x="409" y="65"/>
      <point x="409" y="176" type="curve" smooth="yes"/>
      <point x="409" y="244"/>
      <point x="375" y="288"/>
      <point x="305" y="310" type="curve"/>
      <point x="305" y="315" type="line"/>
      <point x="374" y="353"/>
      <point x="396" y="410"/>
      <point x="396" y="455" type="curve" smooth="yes"/>
      <point x="396" y="540"/>
      <point x="321" y="597"/>
      <point x="209" y="597" type="curve" smooth="yes"/>
    </contour>
  </outline>
</glyph>
<glyph name="tilde.i" format="1">
  <advance width="388"/>
  <outline>
    <contour>
      <point x="295" y="715" type="line"/>
      <point x="275" y="688"/>
      <point x="260" y="662"/>
      <point x="238" y="662" type="curve" smooth="yes"/>
      <point x="217" y="662"/>
      <point x="154" y="689"/>
      <point x="112" y="695" type="curve"/>
      <point x="99" y="690" type="line"/>
      <point x="32" y="593" type="line"/>
      <point x="32" y="579" type="line"/>
      <point x="78" y="534" type="line"/>
      <point x="91" y="534" type="line"/>
      <point x="111" y="561"/>
      <point x="126" y="586"/>
      <point x="148" y="586" type="curve" smooth="yes"/>
      <point x="169" y="586"/>
      <point x="232" y="559"/>
      <point x="274" y="553" type="curve"/>
      <point x="287" y="558" type="line"/>
      <point x="354" y="656" type="line"/>
      <point x="354" y="669" type="line"/>
      <point x="308" y="715" type="line"/>
    </contour>
    <contour>
      <point x="193" y="468" type="move" name="_top"/>
    </contour>
  </outline>
</glyph>
<glyph name="x.sups" format="1">
  <advance width="331"/>
  <outline>
    <contour>
      <point x="3" y="643" type="line"/>
      <point x="91" y="486" type="line"/>
      <point x="3" y="327" type="line"/>
      <point x="106" y="327" type="line"/>
      <point x="122" y="363" type="line"/>
      <point x="156" y="421" type="line"/>
      <point x="186" y="368" type="line"/>
      <point x="203" y="322" type="line"/>
      <point x="327" y="331" type="line"/>
      <point x="237" y="488" type="line"/>
      <point x="326" y="645" type="line"/>
      <point x="224" y="645" type="line"/>
      <point x="206" y="609" type="line"/>
      <point x="174" y="553" type="line"/>
      <point x="144" y="605" type="line"/>
      <point x="129" y="647" type="line"/>
    </contour>
  </outline>
</glyph>
